<mxfile host="app.diagrams.net" agent="Mozilla/5.0 (Windows NT 10.0; Win64; x64) AppleWebKit/537.36 (KHTML, like Gecko) Chrome/136.0.0.0 Safari/537.36 Edg/136.0.0.0" version="27.0.6" pages="3">
  <diagram name="字符串" id="c95ZJi60nrbolUIAZXq1">
    <mxGraphModel dx="1299" dy="771" grid="0" gridSize="10" guides="1" tooltips="1" connect="1" arrows="1" fold="1" page="0" pageScale="1" pageWidth="1654" pageHeight="2336" math="0" shadow="0">
      <root>
        <mxCell id="0" />
        <mxCell id="1" parent="0" />
        <mxCell id="wSZoaBw1oIZxFJjY68Rt-1" value="&lt;b&gt;&lt;font face=&quot;Tahoma&quot; style=&quot;font-size: 24px;&quot;&gt;a&lt;/font&gt;&lt;/b&gt;" style="rounded=0;whiteSpace=wrap;html=1;hachureGap=4;fontFamily=Architects Daughter;fontSource=https%3A%2F%2Ffonts.googleapis.com%2Fcss%3Ffamily%3DArchitects%2BDaughter;fillColor=#dae8fc;strokeColor=#6c8ebf;" parent="1" vertex="1">
          <mxGeometry x="153" y="104" width="66" height="60" as="geometry" />
        </mxCell>
        <mxCell id="wSZoaBw1oIZxFJjY68Rt-7" value="&lt;b&gt;&lt;font face=&quot;Tahoma&quot; style=&quot;font-size: 24px;&quot;&gt;b&lt;/font&gt;&lt;/b&gt;" style="rounded=0;whiteSpace=wrap;html=1;hachureGap=4;fontFamily=Architects Daughter;fontSource=https%3A%2F%2Ffonts.googleapis.com%2Fcss%3Ffamily%3DArchitects%2BDaughter;fillColor=#dae8fc;strokeColor=#6c8ebf;" parent="1" vertex="1">
          <mxGeometry x="219" y="104" width="66" height="60" as="geometry" />
        </mxCell>
        <mxCell id="wSZoaBw1oIZxFJjY68Rt-8" value="&lt;b&gt;&lt;font face=&quot;Tahoma&quot; style=&quot;font-size: 24px;&quot;&gt;c&lt;/font&gt;&lt;/b&gt;" style="rounded=0;whiteSpace=wrap;html=1;hachureGap=4;fontFamily=Architects Daughter;fontSource=https%3A%2F%2Ffonts.googleapis.com%2Fcss%3Ffamily%3DArchitects%2BDaughter;fillColor=#dae8fc;strokeColor=#6c8ebf;" parent="1" vertex="1">
          <mxGeometry x="417" y="104" width="66" height="60" as="geometry" />
        </mxCell>
        <mxCell id="wSZoaBw1oIZxFJjY68Rt-9" value="&lt;b&gt;&lt;font face=&quot;Tahoma&quot; style=&quot;font-size: 24px;&quot;&gt;a&lt;/font&gt;&lt;/b&gt;" style="rounded=0;whiteSpace=wrap;html=1;hachureGap=4;fontFamily=Architects Daughter;fontSource=https%3A%2F%2Ffonts.googleapis.com%2Fcss%3Ffamily%3DArchitects%2BDaughter;fillColor=#dae8fc;strokeColor=#6c8ebf;" parent="1" vertex="1">
          <mxGeometry x="481" y="104" width="66" height="60" as="geometry" />
        </mxCell>
        <mxCell id="wSZoaBw1oIZxFJjY68Rt-10" value="&lt;b&gt;&lt;font face=&quot;Tahoma&quot; style=&quot;font-size: 24px;&quot;&gt;b&lt;/font&gt;&lt;/b&gt;" style="rounded=0;whiteSpace=wrap;html=1;hachureGap=4;fontFamily=Architects Daughter;fontSource=https%3A%2F%2Ffonts.googleapis.com%2Fcss%3Ffamily%3DArchitects%2BDaughter;fillColor=#dae8fc;strokeColor=#6c8ebf;" parent="1" vertex="1">
          <mxGeometry x="351" y="104" width="66" height="60" as="geometry" />
        </mxCell>
        <mxCell id="wSZoaBw1oIZxFJjY68Rt-12" value="&lt;b&gt;&lt;font face=&quot;Tahoma&quot; style=&quot;font-size: 24px;&quot;&gt;b&lt;/font&gt;&lt;/b&gt;" style="rounded=0;whiteSpace=wrap;html=1;hachureGap=4;fontFamily=Architects Daughter;fontSource=https%3A%2F%2Ffonts.googleapis.com%2Fcss%3Ffamily%3DArchitects%2BDaughter;fillColor=#dae8fc;strokeColor=#6c8ebf;" parent="1" vertex="1">
          <mxGeometry x="543" y="104" width="66" height="60" as="geometry" />
        </mxCell>
        <mxCell id="wSZoaBw1oIZxFJjY68Rt-13" value="&lt;b&gt;&lt;font face=&quot;Tahoma&quot; style=&quot;font-size: 24px;&quot;&gt;a&lt;/font&gt;&lt;/b&gt;" style="rounded=0;whiteSpace=wrap;html=1;hachureGap=4;fontFamily=Architects Daughter;fontSource=https%3A%2F%2Ffonts.googleapis.com%2Fcss%3Ffamily%3DArchitects%2BDaughter;fillColor=#dae8fc;strokeColor=#6c8ebf;" parent="1" vertex="1">
          <mxGeometry x="285" y="104" width="66" height="60" as="geometry" />
        </mxCell>
        <mxCell id="wSZoaBw1oIZxFJjY68Rt-14" value="&lt;b&gt;&lt;font face=&quot;Tahoma&quot; style=&quot;font-size: 24px;&quot;&gt;a&lt;/font&gt;&lt;/b&gt;" style="rounded=0;whiteSpace=wrap;html=1;hachureGap=4;fontFamily=Architects Daughter;fontSource=https%3A%2F%2Ffonts.googleapis.com%2Fcss%3Ffamily%3DArchitects%2BDaughter;fillColor=#d5e8d4;strokeColor=#82b366;" parent="1" vertex="1">
          <mxGeometry x="153" y="225" width="66" height="60" as="geometry" />
        </mxCell>
        <mxCell id="wSZoaBw1oIZxFJjY68Rt-15" value="&lt;b&gt;&lt;font face=&quot;Tahoma&quot; style=&quot;font-size: 24px;&quot;&gt;b&lt;/font&gt;&lt;/b&gt;" style="rounded=0;whiteSpace=wrap;html=1;hachureGap=4;fontFamily=Architects Daughter;fontSource=https%3A%2F%2Ffonts.googleapis.com%2Fcss%3Ffamily%3DArchitects%2BDaughter;fillColor=#d5e8d4;strokeColor=#82b366;" parent="1" vertex="1">
          <mxGeometry x="219" y="225" width="66" height="60" as="geometry" />
        </mxCell>
        <mxCell id="wSZoaBw1oIZxFJjY68Rt-16" value="&lt;b&gt;&lt;font face=&quot;Tahoma&quot; style=&quot;font-size: 24px;&quot;&gt;c&lt;/font&gt;&lt;/b&gt;" style="rounded=0;whiteSpace=wrap;html=1;hachureGap=4;fontFamily=Architects Daughter;fontSource=https%3A%2F%2Ffonts.googleapis.com%2Fcss%3Ffamily%3DArchitects%2BDaughter;fillColor=#d5e8d4;strokeColor=#82b366;" parent="1" vertex="1">
          <mxGeometry x="285" y="225" width="66" height="60" as="geometry" />
        </mxCell>
        <mxCell id="wSZoaBw1oIZxFJjY68Rt-17" value="&lt;b&gt;&lt;font style=&quot;font-size: 18px;&quot;&gt;主串&lt;/font&gt;&lt;/b&gt;" style="text;html=1;align=center;verticalAlign=middle;whiteSpace=wrap;rounded=0;" parent="1" vertex="1">
          <mxGeometry x="51" y="121" width="90" height="30" as="geometry" />
        </mxCell>
        <mxCell id="wSZoaBw1oIZxFJjY68Rt-18" value="&lt;b&gt;&lt;font style=&quot;font-size: 18px;&quot;&gt;模式串&lt;/font&gt;&lt;/b&gt;" style="text;html=1;align=center;verticalAlign=middle;whiteSpace=wrap;rounded=0;" parent="1" vertex="1">
          <mxGeometry x="51" y="222" width="90" height="30" as="geometry" />
        </mxCell>
        <mxCell id="wSZoaBw1oIZxFJjY68Rt-19" value="&lt;b&gt;&lt;font style=&quot;font-size: 18px;&quot;&gt;0&lt;/font&gt;&lt;/b&gt;" style="text;html=1;align=center;verticalAlign=middle;whiteSpace=wrap;rounded=0;" parent="1" vertex="1">
          <mxGeometry x="141" y="70" width="90" height="30" as="geometry" />
        </mxCell>
        <mxCell id="wSZoaBw1oIZxFJjY68Rt-20" value="&lt;b&gt;&lt;font style=&quot;font-size: 18px;&quot;&gt;1&lt;/font&gt;&lt;/b&gt;" style="text;html=1;align=center;verticalAlign=middle;whiteSpace=wrap;rounded=0;" parent="1" vertex="1">
          <mxGeometry x="205" y="70" width="90" height="30" as="geometry" />
        </mxCell>
        <mxCell id="wSZoaBw1oIZxFJjY68Rt-21" value="&lt;b&gt;&lt;font style=&quot;font-size: 18px;&quot;&gt;2&lt;/font&gt;&lt;/b&gt;" style="text;html=1;align=center;verticalAlign=middle;whiteSpace=wrap;rounded=0;" parent="1" vertex="1">
          <mxGeometry x="270" y="70" width="90" height="30" as="geometry" />
        </mxCell>
        <mxCell id="wSZoaBw1oIZxFJjY68Rt-22" value="&lt;b&gt;&lt;font style=&quot;font-size: 18px;&quot;&gt;3&lt;/font&gt;&lt;/b&gt;" style="text;html=1;align=center;verticalAlign=middle;whiteSpace=wrap;rounded=0;" parent="1" vertex="1">
          <mxGeometry x="339" y="70" width="90" height="30" as="geometry" />
        </mxCell>
        <mxCell id="wSZoaBw1oIZxFJjY68Rt-23" value="&lt;b&gt;&lt;font style=&quot;font-size: 18px;&quot;&gt;4&lt;/font&gt;&lt;/b&gt;" style="text;html=1;align=center;verticalAlign=middle;whiteSpace=wrap;rounded=0;" parent="1" vertex="1">
          <mxGeometry x="405" y="70" width="90" height="30" as="geometry" />
        </mxCell>
        <mxCell id="wSZoaBw1oIZxFJjY68Rt-24" value="&lt;b&gt;&lt;font style=&quot;font-size: 18px;&quot;&gt;5&lt;/font&gt;&lt;/b&gt;" style="text;html=1;align=center;verticalAlign=middle;whiteSpace=wrap;rounded=0;" parent="1" vertex="1">
          <mxGeometry x="465" y="70" width="90" height="30" as="geometry" />
        </mxCell>
        <mxCell id="wSZoaBw1oIZxFJjY68Rt-25" value="&lt;b&gt;&lt;font style=&quot;font-size: 18px;&quot;&gt;6&lt;/font&gt;&lt;/b&gt;" style="text;html=1;align=center;verticalAlign=middle;whiteSpace=wrap;rounded=0;" parent="1" vertex="1">
          <mxGeometry x="529" y="66" width="90" height="30" as="geometry" />
        </mxCell>
        <mxCell id="wSZoaBw1oIZxFJjY68Rt-26" value="&lt;b&gt;&lt;font style=&quot;font-size: 18px;&quot;&gt;下标&lt;/font&gt;&lt;/b&gt;" style="text;html=1;align=center;verticalAlign=middle;whiteSpace=wrap;rounded=0;" parent="1" vertex="1">
          <mxGeometry x="55" y="70" width="90" height="30" as="geometry" />
        </mxCell>
        <mxCell id="wSZoaBw1oIZxFJjY68Rt-27" value="&lt;b&gt;&lt;font style=&quot;font-size: 18px;&quot;&gt;第一次匹配&lt;/font&gt;&lt;/b&gt;" style="text;html=1;align=center;verticalAlign=middle;whiteSpace=wrap;rounded=0;" parent="1" vertex="1">
          <mxGeometry x="26" y="348" width="130" height="30" as="geometry" />
        </mxCell>
        <mxCell id="wSZoaBw1oIZxFJjY68Rt-28" value="&lt;b&gt;&lt;font face=&quot;Tahoma&quot; style=&quot;font-size: 24px;&quot;&gt;a&lt;/font&gt;&lt;/b&gt;" style="rounded=0;whiteSpace=wrap;html=1;hachureGap=4;fontFamily=Architects Daughter;fontSource=https%3A%2F%2Ffonts.googleapis.com%2Fcss%3Ffamily%3DArchitects%2BDaughter;fillColor=#60a917;strokeColor=#2D7600;fontColor=#ffffff;" parent="1" vertex="1">
          <mxGeometry x="184" y="386" width="66" height="60" as="geometry" />
        </mxCell>
        <mxCell id="wSZoaBw1oIZxFJjY68Rt-29" value="&lt;b&gt;&lt;font face=&quot;Tahoma&quot; style=&quot;font-size: 24px;&quot;&gt;b&lt;/font&gt;&lt;/b&gt;" style="rounded=0;whiteSpace=wrap;html=1;hachureGap=4;fontFamily=Architects Daughter;fontSource=https%3A%2F%2Ffonts.googleapis.com%2Fcss%3Ffamily%3DArchitects%2BDaughter;fillColor=#60a917;strokeColor=#2D7600;fontColor=#ffffff;" parent="1" vertex="1">
          <mxGeometry x="250" y="386" width="66" height="60" as="geometry" />
        </mxCell>
        <mxCell id="wSZoaBw1oIZxFJjY68Rt-30" value="&lt;b&gt;&lt;font face=&quot;Tahoma&quot; style=&quot;font-size: 24px;&quot;&gt;c&lt;/font&gt;&lt;/b&gt;" style="rounded=0;whiteSpace=wrap;html=1;hachureGap=4;fontFamily=Architects Daughter;fontSource=https%3A%2F%2Ffonts.googleapis.com%2Fcss%3Ffamily%3DArchitects%2BDaughter;fillColor=#dae8fc;strokeColor=#6c8ebf;" parent="1" vertex="1">
          <mxGeometry x="448" y="386" width="66" height="60" as="geometry" />
        </mxCell>
        <mxCell id="wSZoaBw1oIZxFJjY68Rt-31" value="&lt;b&gt;&lt;font face=&quot;Tahoma&quot; style=&quot;font-size: 24px;&quot;&gt;a&lt;/font&gt;&lt;/b&gt;" style="rounded=0;whiteSpace=wrap;html=1;hachureGap=4;fontFamily=Architects Daughter;fontSource=https%3A%2F%2Ffonts.googleapis.com%2Fcss%3Ffamily%3DArchitects%2BDaughter;fillColor=#dae8fc;strokeColor=#6c8ebf;" parent="1" vertex="1">
          <mxGeometry x="512" y="386" width="66" height="60" as="geometry" />
        </mxCell>
        <mxCell id="wSZoaBw1oIZxFJjY68Rt-32" value="&lt;b&gt;&lt;font face=&quot;Tahoma&quot; style=&quot;font-size: 24px;&quot;&gt;b&lt;/font&gt;&lt;/b&gt;" style="rounded=0;whiteSpace=wrap;html=1;hachureGap=4;fontFamily=Architects Daughter;fontSource=https%3A%2F%2Ffonts.googleapis.com%2Fcss%3Ffamily%3DArchitects%2BDaughter;fillColor=#dae8fc;strokeColor=#6c8ebf;" parent="1" vertex="1">
          <mxGeometry x="382" y="386" width="66" height="60" as="geometry" />
        </mxCell>
        <mxCell id="wSZoaBw1oIZxFJjY68Rt-33" value="&lt;b&gt;&lt;font face=&quot;Tahoma&quot; style=&quot;font-size: 24px;&quot;&gt;b&lt;/font&gt;&lt;/b&gt;" style="rounded=0;whiteSpace=wrap;html=1;hachureGap=4;fontFamily=Architects Daughter;fontSource=https%3A%2F%2Ffonts.googleapis.com%2Fcss%3Ffamily%3DArchitects%2BDaughter;fillColor=#dae8fc;strokeColor=#6c8ebf;" parent="1" vertex="1">
          <mxGeometry x="574" y="386" width="66" height="60" as="geometry" />
        </mxCell>
        <mxCell id="wSZoaBw1oIZxFJjY68Rt-34" value="&lt;b&gt;&lt;font face=&quot;Tahoma&quot; style=&quot;font-size: 24px;&quot;&gt;a&lt;/font&gt;&lt;/b&gt;" style="rounded=0;whiteSpace=wrap;html=1;hachureGap=4;fontFamily=Architects Daughter;fontSource=https%3A%2F%2Ffonts.googleapis.com%2Fcss%3Ffamily%3DArchitects%2BDaughter;fillColor=#dae8fc;strokeColor=#6c8ebf;" parent="1" vertex="1">
          <mxGeometry x="316" y="386" width="66" height="60" as="geometry" />
        </mxCell>
        <mxCell id="wSZoaBw1oIZxFJjY68Rt-35" value="&lt;b&gt;&lt;font style=&quot;font-size: 18px;&quot;&gt;0&lt;/font&gt;&lt;/b&gt;" style="text;html=1;align=center;verticalAlign=middle;whiteSpace=wrap;rounded=0;" parent="1" vertex="1">
          <mxGeometry x="172" y="352" width="90" height="30" as="geometry" />
        </mxCell>
        <mxCell id="wSZoaBw1oIZxFJjY68Rt-36" value="&lt;b&gt;&lt;font style=&quot;font-size: 18px;&quot;&gt;1&lt;/font&gt;&lt;/b&gt;" style="text;html=1;align=center;verticalAlign=middle;whiteSpace=wrap;rounded=0;" parent="1" vertex="1">
          <mxGeometry x="236" y="352" width="90" height="30" as="geometry" />
        </mxCell>
        <mxCell id="wSZoaBw1oIZxFJjY68Rt-37" value="&lt;b&gt;&lt;font style=&quot;font-size: 18px;&quot;&gt;2&lt;/font&gt;&lt;/b&gt;" style="text;html=1;align=center;verticalAlign=middle;whiteSpace=wrap;rounded=0;" parent="1" vertex="1">
          <mxGeometry x="301" y="352" width="90" height="30" as="geometry" />
        </mxCell>
        <mxCell id="wSZoaBw1oIZxFJjY68Rt-38" value="&lt;b&gt;&lt;font style=&quot;font-size: 18px;&quot;&gt;3&lt;/font&gt;&lt;/b&gt;" style="text;html=1;align=center;verticalAlign=middle;whiteSpace=wrap;rounded=0;" parent="1" vertex="1">
          <mxGeometry x="370" y="352" width="90" height="30" as="geometry" />
        </mxCell>
        <mxCell id="wSZoaBw1oIZxFJjY68Rt-39" value="&lt;b&gt;&lt;font style=&quot;font-size: 18px;&quot;&gt;4&lt;/font&gt;&lt;/b&gt;" style="text;html=1;align=center;verticalAlign=middle;whiteSpace=wrap;rounded=0;" parent="1" vertex="1">
          <mxGeometry x="436" y="352" width="90" height="30" as="geometry" />
        </mxCell>
        <mxCell id="wSZoaBw1oIZxFJjY68Rt-40" value="&lt;b&gt;&lt;font style=&quot;font-size: 18px;&quot;&gt;5&lt;/font&gt;&lt;/b&gt;" style="text;html=1;align=center;verticalAlign=middle;whiteSpace=wrap;rounded=0;" parent="1" vertex="1">
          <mxGeometry x="496" y="352" width="90" height="30" as="geometry" />
        </mxCell>
        <mxCell id="wSZoaBw1oIZxFJjY68Rt-41" value="&lt;b&gt;&lt;font style=&quot;font-size: 18px;&quot;&gt;6&lt;/font&gt;&lt;/b&gt;" style="text;html=1;align=center;verticalAlign=middle;whiteSpace=wrap;rounded=0;" parent="1" vertex="1">
          <mxGeometry x="560" y="348" width="90" height="30" as="geometry" />
        </mxCell>
        <mxCell id="wSZoaBw1oIZxFJjY68Rt-42" value="&lt;b&gt;&lt;font face=&quot;Tahoma&quot; style=&quot;font-size: 24px;&quot;&gt;a&lt;/font&gt;&lt;/b&gt;" style="rounded=0;whiteSpace=wrap;html=1;hachureGap=4;fontFamily=Architects Daughter;fontSource=https%3A%2F%2Ffonts.googleapis.com%2Fcss%3Ffamily%3DArchitects%2BDaughter;fillColor=#60a917;strokeColor=#2D7600;fontColor=#ffffff;" parent="1" vertex="1">
          <mxGeometry x="182" y="492" width="66" height="60" as="geometry" />
        </mxCell>
        <mxCell id="wSZoaBw1oIZxFJjY68Rt-43" value="&lt;b&gt;&lt;font face=&quot;Tahoma&quot; style=&quot;font-size: 24px;&quot;&gt;b&lt;/font&gt;&lt;/b&gt;" style="rounded=0;whiteSpace=wrap;html=1;hachureGap=4;fontFamily=Architects Daughter;fontSource=https%3A%2F%2Ffonts.googleapis.com%2Fcss%3Ffamily%3DArchitects%2BDaughter;fillColor=#60a917;strokeColor=#2D7600;fontColor=#ffffff;" parent="1" vertex="1">
          <mxGeometry x="248" y="492" width="66" height="60" as="geometry" />
        </mxCell>
        <mxCell id="wSZoaBw1oIZxFJjY68Rt-44" value="&lt;b&gt;&lt;font face=&quot;Tahoma&quot; style=&quot;font-size: 24px;&quot;&gt;c&lt;/font&gt;&lt;/b&gt;" style="rounded=0;whiteSpace=wrap;html=1;hachureGap=4;fontFamily=Architects Daughter;fontSource=https%3A%2F%2Ffonts.googleapis.com%2Fcss%3Ffamily%3DArchitects%2BDaughter;fillColor=#d5e8d4;strokeColor=#82b366;" parent="1" vertex="1">
          <mxGeometry x="314" y="492" width="66" height="60" as="geometry" />
        </mxCell>
        <mxCell id="wSZoaBw1oIZxFJjY68Rt-46" value="&lt;b&gt;&lt;font style=&quot;font-size: 18px;&quot;&gt;第二次匹配&lt;/font&gt;&lt;/b&gt;" style="text;html=1;align=center;verticalAlign=middle;whiteSpace=wrap;rounded=0;" parent="1" vertex="1">
          <mxGeometry x="26" y="599" width="130" height="30" as="geometry" />
        </mxCell>
        <mxCell id="wSZoaBw1oIZxFJjY68Rt-47" value="&lt;b&gt;&lt;font face=&quot;Tahoma&quot; style=&quot;font-size: 24px;&quot;&gt;a&lt;/font&gt;&lt;/b&gt;" style="rounded=0;whiteSpace=wrap;html=1;hachureGap=4;fontFamily=Architects Daughter;fontSource=https%3A%2F%2Ffonts.googleapis.com%2Fcss%3Ffamily%3DArchitects%2BDaughter;fillColor=#dae8fc;strokeColor=#6c8ebf;" parent="1" vertex="1">
          <mxGeometry x="188" y="628" width="66" height="60" as="geometry" />
        </mxCell>
        <mxCell id="wSZoaBw1oIZxFJjY68Rt-48" value="&lt;b&gt;&lt;font face=&quot;Tahoma&quot; style=&quot;font-size: 24px;&quot;&gt;b&lt;/font&gt;&lt;/b&gt;" style="rounded=0;whiteSpace=wrap;html=1;hachureGap=4;fontFamily=Architects Daughter;fontSource=https%3A%2F%2Ffonts.googleapis.com%2Fcss%3Ffamily%3DArchitects%2BDaughter;fillColor=#d80073;strokeColor=#A50040;fontColor=#ffffff;" parent="1" vertex="1">
          <mxGeometry x="254" y="628" width="66" height="60" as="geometry" />
        </mxCell>
        <mxCell id="wSZoaBw1oIZxFJjY68Rt-49" value="&lt;b&gt;&lt;font face=&quot;Tahoma&quot; style=&quot;font-size: 24px;&quot;&gt;c&lt;/font&gt;&lt;/b&gt;" style="rounded=0;whiteSpace=wrap;html=1;hachureGap=4;fontFamily=Architects Daughter;fontSource=https%3A%2F%2Ffonts.googleapis.com%2Fcss%3Ffamily%3DArchitects%2BDaughter;fillColor=#dae8fc;strokeColor=#6c8ebf;" parent="1" vertex="1">
          <mxGeometry x="452" y="628" width="66" height="60" as="geometry" />
        </mxCell>
        <mxCell id="wSZoaBw1oIZxFJjY68Rt-50" value="&lt;b&gt;&lt;font face=&quot;Tahoma&quot; style=&quot;font-size: 24px;&quot;&gt;a&lt;/font&gt;&lt;/b&gt;" style="rounded=0;whiteSpace=wrap;html=1;hachureGap=4;fontFamily=Architects Daughter;fontSource=https%3A%2F%2Ffonts.googleapis.com%2Fcss%3Ffamily%3DArchitects%2BDaughter;fillColor=#dae8fc;strokeColor=#6c8ebf;" parent="1" vertex="1">
          <mxGeometry x="516" y="628" width="66" height="60" as="geometry" />
        </mxCell>
        <mxCell id="wSZoaBw1oIZxFJjY68Rt-51" value="&lt;b&gt;&lt;font face=&quot;Tahoma&quot; style=&quot;font-size: 24px;&quot;&gt;b&lt;/font&gt;&lt;/b&gt;" style="rounded=0;whiteSpace=wrap;html=1;hachureGap=4;fontFamily=Architects Daughter;fontSource=https%3A%2F%2Ffonts.googleapis.com%2Fcss%3Ffamily%3DArchitects%2BDaughter;fillColor=#dae8fc;strokeColor=#6c8ebf;" parent="1" vertex="1">
          <mxGeometry x="386" y="628" width="66" height="60" as="geometry" />
        </mxCell>
        <mxCell id="wSZoaBw1oIZxFJjY68Rt-52" value="&lt;b&gt;&lt;font face=&quot;Tahoma&quot; style=&quot;font-size: 24px;&quot;&gt;b&lt;/font&gt;&lt;/b&gt;" style="rounded=0;whiteSpace=wrap;html=1;hachureGap=4;fontFamily=Architects Daughter;fontSource=https%3A%2F%2Ffonts.googleapis.com%2Fcss%3Ffamily%3DArchitects%2BDaughter;fillColor=#dae8fc;strokeColor=#6c8ebf;" parent="1" vertex="1">
          <mxGeometry x="578" y="628" width="66" height="60" as="geometry" />
        </mxCell>
        <mxCell id="wSZoaBw1oIZxFJjY68Rt-53" value="&lt;b&gt;&lt;font face=&quot;Tahoma&quot; style=&quot;font-size: 24px;&quot;&gt;a&lt;/font&gt;&lt;/b&gt;" style="rounded=0;whiteSpace=wrap;html=1;hachureGap=4;fontFamily=Architects Daughter;fontSource=https%3A%2F%2Ffonts.googleapis.com%2Fcss%3Ffamily%3DArchitects%2BDaughter;fillColor=#dae8fc;strokeColor=#6c8ebf;" parent="1" vertex="1">
          <mxGeometry x="320" y="628" width="66" height="60" as="geometry" />
        </mxCell>
        <mxCell id="wSZoaBw1oIZxFJjY68Rt-54" value="&lt;b&gt;&lt;font style=&quot;font-size: 18px;&quot;&gt;0&lt;/font&gt;&lt;/b&gt;" style="text;html=1;align=center;verticalAlign=middle;whiteSpace=wrap;rounded=0;" parent="1" vertex="1">
          <mxGeometry x="176" y="594" width="90" height="30" as="geometry" />
        </mxCell>
        <mxCell id="wSZoaBw1oIZxFJjY68Rt-55" value="&lt;b&gt;&lt;font style=&quot;font-size: 18px;&quot;&gt;1&lt;/font&gt;&lt;/b&gt;" style="text;html=1;align=center;verticalAlign=middle;whiteSpace=wrap;rounded=0;" parent="1" vertex="1">
          <mxGeometry x="240" y="594" width="90" height="30" as="geometry" />
        </mxCell>
        <mxCell id="wSZoaBw1oIZxFJjY68Rt-56" value="&lt;b&gt;&lt;font style=&quot;font-size: 18px;&quot;&gt;2&lt;/font&gt;&lt;/b&gt;" style="text;html=1;align=center;verticalAlign=middle;whiteSpace=wrap;rounded=0;" parent="1" vertex="1">
          <mxGeometry x="305" y="594" width="90" height="30" as="geometry" />
        </mxCell>
        <mxCell id="wSZoaBw1oIZxFJjY68Rt-57" value="&lt;b&gt;&lt;font style=&quot;font-size: 18px;&quot;&gt;3&lt;/font&gt;&lt;/b&gt;" style="text;html=1;align=center;verticalAlign=middle;whiteSpace=wrap;rounded=0;" parent="1" vertex="1">
          <mxGeometry x="374" y="594" width="90" height="30" as="geometry" />
        </mxCell>
        <mxCell id="wSZoaBw1oIZxFJjY68Rt-58" value="&lt;b&gt;&lt;font style=&quot;font-size: 18px;&quot;&gt;4&lt;/font&gt;&lt;/b&gt;" style="text;html=1;align=center;verticalAlign=middle;whiteSpace=wrap;rounded=0;" parent="1" vertex="1">
          <mxGeometry x="440" y="594" width="90" height="30" as="geometry" />
        </mxCell>
        <mxCell id="wSZoaBw1oIZxFJjY68Rt-59" value="&lt;b&gt;&lt;font style=&quot;font-size: 18px;&quot;&gt;5&lt;/font&gt;&lt;/b&gt;" style="text;html=1;align=center;verticalAlign=middle;whiteSpace=wrap;rounded=0;" parent="1" vertex="1">
          <mxGeometry x="500" y="594" width="90" height="30" as="geometry" />
        </mxCell>
        <mxCell id="wSZoaBw1oIZxFJjY68Rt-60" value="&lt;b&gt;&lt;font style=&quot;font-size: 18px;&quot;&gt;6&lt;/font&gt;&lt;/b&gt;" style="text;html=1;align=center;verticalAlign=middle;whiteSpace=wrap;rounded=0;" parent="1" vertex="1">
          <mxGeometry x="564" y="590" width="90" height="30" as="geometry" />
        </mxCell>
        <mxCell id="wSZoaBw1oIZxFJjY68Rt-61" value="&lt;b&gt;&lt;font face=&quot;Tahoma&quot; style=&quot;font-size: 24px;&quot;&gt;a&lt;/font&gt;&lt;/b&gt;" style="rounded=0;whiteSpace=wrap;html=1;hachureGap=4;fontFamily=Architects Daughter;fontSource=https%3A%2F%2Ffonts.googleapis.com%2Fcss%3Ffamily%3DArchitects%2BDaughter;fillColor=#d80073;strokeColor=#A50040;fontColor=#ffffff;" parent="1" vertex="1">
          <mxGeometry x="254" y="735" width="66" height="60" as="geometry" />
        </mxCell>
        <mxCell id="wSZoaBw1oIZxFJjY68Rt-62" value="&lt;b&gt;&lt;font face=&quot;Tahoma&quot; style=&quot;font-size: 24px;&quot;&gt;b&lt;/font&gt;&lt;/b&gt;" style="rounded=0;whiteSpace=wrap;html=1;hachureGap=4;fontFamily=Architects Daughter;fontSource=https%3A%2F%2Ffonts.googleapis.com%2Fcss%3Ffamily%3DArchitects%2BDaughter;fillColor=#d5e8d4;strokeColor=#82b366;" parent="1" vertex="1">
          <mxGeometry x="320" y="735" width="66" height="60" as="geometry" />
        </mxCell>
        <mxCell id="wSZoaBw1oIZxFJjY68Rt-63" value="&lt;b&gt;&lt;font face=&quot;Tahoma&quot; style=&quot;font-size: 24px;&quot;&gt;c&lt;/font&gt;&lt;/b&gt;" style="rounded=0;whiteSpace=wrap;html=1;hachureGap=4;fontFamily=Architects Daughter;fontSource=https%3A%2F%2Ffonts.googleapis.com%2Fcss%3Ffamily%3DArchitects%2BDaughter;fillColor=#d5e8d4;strokeColor=#82b366;" parent="1" vertex="1">
          <mxGeometry x="386" y="735" width="66" height="60" as="geometry" />
        </mxCell>
        <mxCell id="wSZoaBw1oIZxFJjY68Rt-65" value="&lt;b&gt;&lt;font face=&quot;Tahoma&quot; style=&quot;font-size: 24px;&quot;&gt;a&lt;/font&gt;&lt;/b&gt;" style="rounded=0;whiteSpace=wrap;html=1;hachureGap=4;fontFamily=Architects Daughter;fontSource=https%3A%2F%2Ffonts.googleapis.com%2Fcss%3Ffamily%3DArchitects%2BDaughter;fillColor=#dae8fc;strokeColor=#6c8ebf;" parent="1" vertex="1">
          <mxGeometry x="188" y="897" width="66" height="60" as="geometry" />
        </mxCell>
        <mxCell id="wSZoaBw1oIZxFJjY68Rt-66" value="&lt;b&gt;&lt;font face=&quot;Tahoma&quot; style=&quot;font-size: 24px;&quot;&gt;b&lt;/font&gt;&lt;/b&gt;" style="rounded=0;whiteSpace=wrap;html=1;hachureGap=4;fontFamily=Architects Daughter;fontSource=https%3A%2F%2Ffonts.googleapis.com%2Fcss%3Ffamily%3DArchitects%2BDaughter;fillColor=#dae8fc;strokeColor=#6c8ebf;" parent="1" vertex="1">
          <mxGeometry x="254" y="897" width="66" height="60" as="geometry" />
        </mxCell>
        <mxCell id="wSZoaBw1oIZxFJjY68Rt-67" value="&lt;b&gt;&lt;font face=&quot;Tahoma&quot; style=&quot;font-size: 24px;&quot;&gt;c&lt;/font&gt;&lt;/b&gt;" style="rounded=0;whiteSpace=wrap;html=1;hachureGap=4;fontFamily=Architects Daughter;fontSource=https%3A%2F%2Ffonts.googleapis.com%2Fcss%3Ffamily%3DArchitects%2BDaughter;fillColor=#60a917;strokeColor=#2D7600;fontColor=#ffffff;" parent="1" vertex="1">
          <mxGeometry x="452" y="897" width="66" height="60" as="geometry" />
        </mxCell>
        <mxCell id="wSZoaBw1oIZxFJjY68Rt-68" value="&lt;b&gt;&lt;font face=&quot;Tahoma&quot; style=&quot;font-size: 24px;&quot;&gt;a&lt;/font&gt;&lt;/b&gt;" style="rounded=0;whiteSpace=wrap;html=1;hachureGap=4;fontFamily=Architects Daughter;fontSource=https%3A%2F%2Ffonts.googleapis.com%2Fcss%3Ffamily%3DArchitects%2BDaughter;fillColor=#dae8fc;strokeColor=#6c8ebf;" parent="1" vertex="1">
          <mxGeometry x="516" y="897" width="66" height="60" as="geometry" />
        </mxCell>
        <mxCell id="wSZoaBw1oIZxFJjY68Rt-69" value="&lt;b&gt;&lt;font face=&quot;Tahoma&quot; style=&quot;font-size: 24px;&quot;&gt;b&lt;/font&gt;&lt;/b&gt;" style="rounded=0;whiteSpace=wrap;html=1;hachureGap=4;fontFamily=Architects Daughter;fontSource=https%3A%2F%2Ffonts.googleapis.com%2Fcss%3Ffamily%3DArchitects%2BDaughter;fillColor=#60a917;strokeColor=#2D7600;fontColor=#ffffff;" parent="1" vertex="1">
          <mxGeometry x="386" y="897" width="66" height="60" as="geometry" />
        </mxCell>
        <mxCell id="wSZoaBw1oIZxFJjY68Rt-70" value="&lt;b&gt;&lt;font face=&quot;Tahoma&quot; style=&quot;font-size: 24px;&quot;&gt;b&lt;/font&gt;&lt;/b&gt;" style="rounded=0;whiteSpace=wrap;html=1;hachureGap=4;fontFamily=Architects Daughter;fontSource=https%3A%2F%2Ffonts.googleapis.com%2Fcss%3Ffamily%3DArchitects%2BDaughter;fillColor=#dae8fc;strokeColor=#6c8ebf;" parent="1" vertex="1">
          <mxGeometry x="578" y="897" width="66" height="60" as="geometry" />
        </mxCell>
        <mxCell id="wSZoaBw1oIZxFJjY68Rt-71" value="&lt;b&gt;&lt;font face=&quot;Tahoma&quot; style=&quot;font-size: 24px;&quot;&gt;a&lt;/font&gt;&lt;/b&gt;" style="rounded=0;whiteSpace=wrap;html=1;hachureGap=4;fontFamily=Architects Daughter;fontSource=https%3A%2F%2Ffonts.googleapis.com%2Fcss%3Ffamily%3DArchitects%2BDaughter;fillColor=#60a917;strokeColor=#2D7600;fontColor=#ffffff;" parent="1" vertex="1">
          <mxGeometry x="320" y="897" width="66" height="60" as="geometry" />
        </mxCell>
        <mxCell id="wSZoaBw1oIZxFJjY68Rt-72" value="&lt;b&gt;&lt;font style=&quot;font-size: 18px;&quot;&gt;0&lt;/font&gt;&lt;/b&gt;" style="text;html=1;align=center;verticalAlign=middle;whiteSpace=wrap;rounded=0;" parent="1" vertex="1">
          <mxGeometry x="176" y="863" width="90" height="30" as="geometry" />
        </mxCell>
        <mxCell id="wSZoaBw1oIZxFJjY68Rt-73" value="&lt;b&gt;&lt;font style=&quot;font-size: 18px;&quot;&gt;1&lt;/font&gt;&lt;/b&gt;" style="text;html=1;align=center;verticalAlign=middle;whiteSpace=wrap;rounded=0;" parent="1" vertex="1">
          <mxGeometry x="240" y="863" width="90" height="30" as="geometry" />
        </mxCell>
        <mxCell id="wSZoaBw1oIZxFJjY68Rt-74" value="&lt;b&gt;&lt;font style=&quot;font-size: 18px;&quot;&gt;2&lt;/font&gt;&lt;/b&gt;" style="text;html=1;align=center;verticalAlign=middle;whiteSpace=wrap;rounded=0;" parent="1" vertex="1">
          <mxGeometry x="305" y="863" width="90" height="30" as="geometry" />
        </mxCell>
        <mxCell id="wSZoaBw1oIZxFJjY68Rt-75" value="&lt;b&gt;&lt;font style=&quot;font-size: 18px;&quot;&gt;3&lt;/font&gt;&lt;/b&gt;" style="text;html=1;align=center;verticalAlign=middle;whiteSpace=wrap;rounded=0;" parent="1" vertex="1">
          <mxGeometry x="374" y="863" width="90" height="30" as="geometry" />
        </mxCell>
        <mxCell id="wSZoaBw1oIZxFJjY68Rt-76" value="&lt;b&gt;&lt;font style=&quot;font-size: 18px;&quot;&gt;4&lt;/font&gt;&lt;/b&gt;" style="text;html=1;align=center;verticalAlign=middle;whiteSpace=wrap;rounded=0;" parent="1" vertex="1">
          <mxGeometry x="440" y="863" width="90" height="30" as="geometry" />
        </mxCell>
        <mxCell id="wSZoaBw1oIZxFJjY68Rt-77" value="&lt;b&gt;&lt;font style=&quot;font-size: 18px;&quot;&gt;5&lt;/font&gt;&lt;/b&gt;" style="text;html=1;align=center;verticalAlign=middle;whiteSpace=wrap;rounded=0;" parent="1" vertex="1">
          <mxGeometry x="500" y="863" width="90" height="30" as="geometry" />
        </mxCell>
        <mxCell id="wSZoaBw1oIZxFJjY68Rt-78" value="&lt;b&gt;&lt;font style=&quot;font-size: 18px;&quot;&gt;6&lt;/font&gt;&lt;/b&gt;" style="text;html=1;align=center;verticalAlign=middle;whiteSpace=wrap;rounded=0;" parent="1" vertex="1">
          <mxGeometry x="564" y="859" width="90" height="30" as="geometry" />
        </mxCell>
        <mxCell id="wSZoaBw1oIZxFJjY68Rt-79" value="&lt;b&gt;&lt;font face=&quot;Tahoma&quot; style=&quot;font-size: 24px;&quot;&gt;a&lt;/font&gt;&lt;/b&gt;" style="rounded=0;whiteSpace=wrap;html=1;hachureGap=4;fontFamily=Architects Daughter;fontSource=https%3A%2F%2Ffonts.googleapis.com%2Fcss%3Ffamily%3DArchitects%2BDaughter;fillColor=#60a917;strokeColor=#2D7600;fontColor=#ffffff;" parent="1" vertex="1">
          <mxGeometry x="323" y="1009" width="66" height="60" as="geometry" />
        </mxCell>
        <mxCell id="wSZoaBw1oIZxFJjY68Rt-80" value="&lt;b&gt;&lt;font face=&quot;Tahoma&quot; style=&quot;font-size: 24px;&quot;&gt;b&lt;/font&gt;&lt;/b&gt;" style="rounded=0;whiteSpace=wrap;html=1;hachureGap=4;fontFamily=Architects Daughter;fontSource=https%3A%2F%2Ffonts.googleapis.com%2Fcss%3Ffamily%3DArchitects%2BDaughter;fillColor=#60a917;strokeColor=#2D7600;fontColor=#ffffff;" parent="1" vertex="1">
          <mxGeometry x="389" y="1009" width="66" height="60" as="geometry" />
        </mxCell>
        <mxCell id="wSZoaBw1oIZxFJjY68Rt-81" value="&lt;b&gt;&lt;font face=&quot;Tahoma&quot; style=&quot;font-size: 24px;&quot;&gt;c&lt;/font&gt;&lt;/b&gt;" style="rounded=0;whiteSpace=wrap;html=1;hachureGap=4;fontFamily=Architects Daughter;fontSource=https%3A%2F%2Ffonts.googleapis.com%2Fcss%3Ffamily%3DArchitects%2BDaughter;fillColor=#60a917;strokeColor=#2D7600;fontColor=#ffffff;" parent="1" vertex="1">
          <mxGeometry x="455" y="1009" width="66" height="60" as="geometry" />
        </mxCell>
        <mxCell id="wSZoaBw1oIZxFJjY68Rt-82" value="&lt;b&gt;&lt;font style=&quot;font-size: 18px;&quot;&gt;第三次匹配&lt;/font&gt;&lt;/b&gt;" style="text;html=1;align=center;verticalAlign=middle;whiteSpace=wrap;rounded=0;" parent="1" vertex="1">
          <mxGeometry x="31" y="922" width="130" height="30" as="geometry" />
        </mxCell>
        <mxCell id="wSZoaBw1oIZxFJjY68Rt-83" value="&lt;font face=&quot;Tahoma&quot;&gt;&lt;span style=&quot;font-size: 24px;&quot;&gt;&lt;b&gt;&amp;nbsp;&lt;/b&gt;&lt;/span&gt;&lt;/font&gt;" style="rounded=0;whiteSpace=wrap;html=1;hachureGap=4;fontFamily=Architects Daughter;fontSource=https%3A%2F%2Ffonts.googleapis.com%2Fcss%3Ffamily%3DArchitects%2BDaughter;fillColor=#dae8fc;strokeColor=#6c8ebf;" parent="1" vertex="1">
          <mxGeometry x="178" y="1372" width="66" height="60" as="geometry" />
        </mxCell>
        <mxCell id="wSZoaBw1oIZxFJjY68Rt-84" value="&lt;font face=&quot;Tahoma&quot;&gt;&lt;span style=&quot;font-size: 24px;&quot;&gt;&lt;b&gt;&amp;nbsp;&lt;/b&gt;&lt;/span&gt;&lt;/font&gt;" style="rounded=0;whiteSpace=wrap;html=1;hachureGap=4;fontFamily=Architects Daughter;fontSource=https%3A%2F%2Ffonts.googleapis.com%2Fcss%3Ffamily%3DArchitects%2BDaughter;fillColor=#dae8fc;strokeColor=#6c8ebf;" parent="1" vertex="1">
          <mxGeometry x="244" y="1372" width="66" height="60" as="geometry" />
        </mxCell>
        <mxCell id="wSZoaBw1oIZxFJjY68Rt-85" value="&lt;font face=&quot;Tahoma&quot;&gt;&lt;span style=&quot;font-size: 24px;&quot;&gt;&lt;b&gt;&amp;nbsp;&lt;/b&gt;&lt;/span&gt;&lt;/font&gt;" style="rounded=0;whiteSpace=wrap;html=1;hachureGap=4;fontFamily=Architects Daughter;fontSource=https%3A%2F%2Ffonts.googleapis.com%2Fcss%3Ffamily%3DArchitects%2BDaughter;fillColor=#dae8fc;strokeColor=#6c8ebf;" parent="1" vertex="1">
          <mxGeometry x="442" y="1372" width="66" height="60" as="geometry" />
        </mxCell>
        <mxCell id="wSZoaBw1oIZxFJjY68Rt-86" value="&lt;font face=&quot;Tahoma&quot;&gt;&lt;span style=&quot;font-size: 24px;&quot;&gt;&lt;b&gt;&amp;nbsp;&lt;/b&gt;&lt;/span&gt;&lt;/font&gt;" style="rounded=0;whiteSpace=wrap;html=1;hachureGap=4;fontFamily=Architects Daughter;fontSource=https%3A%2F%2Ffonts.googleapis.com%2Fcss%3Ffamily%3DArchitects%2BDaughter;fillColor=#dae8fc;strokeColor=#6c8ebf;" parent="1" vertex="1">
          <mxGeometry x="506" y="1372" width="66" height="60" as="geometry" />
        </mxCell>
        <mxCell id="wSZoaBw1oIZxFJjY68Rt-87" value="&lt;font face=&quot;Tahoma&quot;&gt;&lt;span style=&quot;font-size: 24px;&quot;&gt;&lt;b&gt;&amp;nbsp;&lt;/b&gt;&lt;/span&gt;&lt;/font&gt;" style="rounded=0;whiteSpace=wrap;html=1;hachureGap=4;fontFamily=Architects Daughter;fontSource=https%3A%2F%2Ffonts.googleapis.com%2Fcss%3Ffamily%3DArchitects%2BDaughter;fillColor=#dae8fc;strokeColor=#6c8ebf;" parent="1" vertex="1">
          <mxGeometry x="376" y="1372" width="66" height="60" as="geometry" />
        </mxCell>
        <mxCell id="wSZoaBw1oIZxFJjY68Rt-88" value="&lt;font face=&quot;Tahoma&quot;&gt;&lt;span style=&quot;font-size: 24px;&quot;&gt;&lt;b&gt;S&lt;sub&gt;i&lt;/sub&gt;&lt;/b&gt;&lt;/span&gt;&lt;/font&gt;" style="rounded=0;whiteSpace=wrap;html=1;hachureGap=4;fontFamily=Architects Daughter;fontSource=https%3A%2F%2Ffonts.googleapis.com%2Fcss%3Ffamily%3DArchitects%2BDaughter;fillColor=#dae8fc;strokeColor=#6c8ebf;" parent="1" vertex="1">
          <mxGeometry x="568" y="1372" width="66" height="60" as="geometry" />
        </mxCell>
        <mxCell id="wSZoaBw1oIZxFJjY68Rt-89" value="&lt;font face=&quot;Tahoma&quot;&gt;&lt;span style=&quot;font-size: 24px;&quot;&gt;&lt;b&gt;&amp;nbsp;&lt;/b&gt;&lt;/span&gt;&lt;/font&gt;" style="rounded=0;whiteSpace=wrap;html=1;hachureGap=4;fontFamily=Architects Daughter;fontSource=https%3A%2F%2Ffonts.googleapis.com%2Fcss%3Ffamily%3DArchitects%2BDaughter;fillColor=#dae8fc;strokeColor=#6c8ebf;" parent="1" vertex="1">
          <mxGeometry x="310" y="1372" width="66" height="60" as="geometry" />
        </mxCell>
        <mxCell id="wSZoaBw1oIZxFJjY68Rt-97" value="&lt;font face=&quot;Tahoma&quot;&gt;&lt;span style=&quot;font-size: 24px;&quot;&gt;&lt;b&gt;&amp;nbsp;&lt;/b&gt;&lt;/span&gt;&lt;/font&gt;" style="rounded=0;whiteSpace=wrap;html=1;hachureGap=4;fontFamily=Architects Daughter;fontSource=https%3A%2F%2Ffonts.googleapis.com%2Fcss%3Ffamily%3DArchitects%2BDaughter;fillColor=#dae8fc;strokeColor=#6c8ebf;" parent="1" vertex="1">
          <mxGeometry x="634" y="1372" width="66" height="60" as="geometry" />
        </mxCell>
        <mxCell id="wSZoaBw1oIZxFJjY68Rt-98" value="&lt;font face=&quot;Tahoma&quot;&gt;&lt;span style=&quot;font-size: 24px;&quot;&gt;&lt;b&gt;...&lt;/b&gt;&lt;/span&gt;&lt;/font&gt;" style="rounded=0;whiteSpace=wrap;html=1;hachureGap=4;fontFamily=Architects Daughter;fontSource=https%3A%2F%2Ffonts.googleapis.com%2Fcss%3Ffamily%3DArchitects%2BDaughter;fillColor=#dae8fc;strokeColor=#6c8ebf;" parent="1" vertex="1">
          <mxGeometry x="700" y="1372" width="66" height="60" as="geometry" />
        </mxCell>
        <mxCell id="wSZoaBw1oIZxFJjY68Rt-99" value="&lt;font face=&quot;Tahoma&quot;&gt;&lt;span style=&quot;font-size: 24px;&quot;&gt;&lt;b&gt;&amp;nbsp;&lt;/b&gt;&lt;/span&gt;&lt;/font&gt;" style="rounded=0;whiteSpace=wrap;html=1;hachureGap=4;fontFamily=Architects Daughter;fontSource=https%3A%2F%2Ffonts.googleapis.com%2Fcss%3Ffamily%3DArchitects%2BDaughter;fillColor=#dae8fc;strokeColor=#6c8ebf;" parent="1" vertex="1">
          <mxGeometry x="898" y="1372" width="66" height="60" as="geometry" />
        </mxCell>
        <mxCell id="wSZoaBw1oIZxFJjY68Rt-100" value="&lt;font face=&quot;Tahoma&quot;&gt;&lt;span style=&quot;font-size: 24px;&quot;&gt;&lt;b&gt;&amp;nbsp;&lt;/b&gt;&lt;/span&gt;&lt;/font&gt;" style="rounded=0;whiteSpace=wrap;html=1;hachureGap=4;fontFamily=Architects Daughter;fontSource=https%3A%2F%2Ffonts.googleapis.com%2Fcss%3Ffamily%3DArchitects%2BDaughter;fillColor=#dae8fc;strokeColor=#6c8ebf;" parent="1" vertex="1">
          <mxGeometry x="962" y="1372" width="66" height="60" as="geometry" />
        </mxCell>
        <mxCell id="wSZoaBw1oIZxFJjY68Rt-101" value="&lt;font face=&quot;Tahoma&quot;&gt;&lt;span style=&quot;font-size: 24px;&quot;&gt;&lt;b&gt;&amp;nbsp;&lt;/b&gt;&lt;/span&gt;&lt;/font&gt;" style="rounded=0;whiteSpace=wrap;html=1;hachureGap=4;fontFamily=Architects Daughter;fontSource=https%3A%2F%2Ffonts.googleapis.com%2Fcss%3Ffamily%3DArchitects%2BDaughter;fillColor=#dae8fc;strokeColor=#6c8ebf;" parent="1" vertex="1">
          <mxGeometry x="832" y="1372" width="66" height="60" as="geometry" />
        </mxCell>
        <mxCell id="wSZoaBw1oIZxFJjY68Rt-102" value="&lt;font face=&quot;Tahoma&quot;&gt;&lt;span style=&quot;font-size: 24px;&quot;&gt;&lt;b&gt;&amp;nbsp;&lt;/b&gt;&lt;/span&gt;&lt;/font&gt;" style="rounded=0;whiteSpace=wrap;html=1;hachureGap=4;fontFamily=Architects Daughter;fontSource=https%3A%2F%2Ffonts.googleapis.com%2Fcss%3Ffamily%3DArchitects%2BDaughter;fillColor=#dae8fc;strokeColor=#6c8ebf;" parent="1" vertex="1">
          <mxGeometry x="1024" y="1372" width="66" height="60" as="geometry" />
        </mxCell>
        <mxCell id="wSZoaBw1oIZxFJjY68Rt-103" value="&lt;font face=&quot;Tahoma&quot;&gt;&lt;span style=&quot;font-size: 24px;&quot;&gt;&lt;b&gt;&amp;nbsp;&lt;/b&gt;&lt;/span&gt;&lt;/font&gt;" style="rounded=0;whiteSpace=wrap;html=1;hachureGap=4;fontFamily=Architects Daughter;fontSource=https%3A%2F%2Ffonts.googleapis.com%2Fcss%3Ffamily%3DArchitects%2BDaughter;fillColor=#dae8fc;strokeColor=#6c8ebf;" parent="1" vertex="1">
          <mxGeometry x="766" y="1372" width="66" height="60" as="geometry" />
        </mxCell>
        <mxCell id="wSZoaBw1oIZxFJjY68Rt-104" value="&lt;b&gt;&lt;font style=&quot;font-size: 18px;&quot;&gt;主串S&lt;/font&gt;&lt;/b&gt;" style="text;html=1;align=center;verticalAlign=middle;whiteSpace=wrap;rounded=0;" parent="1" vertex="1">
          <mxGeometry x="92" y="1379" width="90" height="30" as="geometry" />
        </mxCell>
        <mxCell id="wSZoaBw1oIZxFJjY68Rt-105" value="&lt;font face=&quot;Tahoma&quot;&gt;&lt;span style=&quot;font-size: 24px;&quot;&gt;&lt;b&gt;&amp;nbsp;&lt;/b&gt;&lt;/span&gt;&lt;/font&gt;" style="rounded=0;whiteSpace=wrap;html=1;hachureGap=4;fontFamily=Architects Daughter;fontSource=https%3A%2F%2Ffonts.googleapis.com%2Fcss%3Ffamily%3DArchitects%2BDaughter;fillColor=#d5e8d4;strokeColor=#82b366;" parent="1" vertex="1">
          <mxGeometry x="371" y="1547" width="66" height="60" as="geometry" />
        </mxCell>
        <mxCell id="wSZoaBw1oIZxFJjY68Rt-106" value="&lt;font face=&quot;Tahoma&quot;&gt;&lt;span style=&quot;font-size: 24px;&quot;&gt;&lt;b&gt;&amp;nbsp;&lt;/b&gt;&lt;/span&gt;&lt;/font&gt;" style="rounded=0;whiteSpace=wrap;html=1;hachureGap=4;fontFamily=Architects Daughter;fontSource=https%3A%2F%2Ffonts.googleapis.com%2Fcss%3Ffamily%3DArchitects%2BDaughter;fillColor=#d5e8d4;strokeColor=#82b366;" parent="1" vertex="1">
          <mxGeometry x="437" y="1547" width="66" height="60" as="geometry" />
        </mxCell>
        <mxCell id="wSZoaBw1oIZxFJjY68Rt-107" value="&lt;font face=&quot;Tahoma&quot;&gt;&lt;span style=&quot;font-size: 24px;&quot;&gt;&lt;b&gt;&amp;nbsp;&lt;/b&gt;&lt;/span&gt;&lt;/font&gt;" style="rounded=0;whiteSpace=wrap;html=1;hachureGap=4;fontFamily=Architects Daughter;fontSource=https%3A%2F%2Ffonts.googleapis.com%2Fcss%3Ffamily%3DArchitects%2BDaughter;fillColor=#d5e8d4;strokeColor=#82b366;" parent="1" vertex="1">
          <mxGeometry x="502" y="1547" width="66" height="60" as="geometry" />
        </mxCell>
        <mxCell id="wSZoaBw1oIZxFJjY68Rt-108" value="&lt;font face=&quot;Tahoma&quot;&gt;&lt;span style=&quot;font-size: 24px;&quot;&gt;&lt;b&gt;t&lt;sub&gt;j&lt;/sub&gt;&lt;/b&gt;&lt;/span&gt;&lt;/font&gt;" style="rounded=0;whiteSpace=wrap;html=1;hachureGap=4;fontFamily=Architects Daughter;fontSource=https%3A%2F%2Ffonts.googleapis.com%2Fcss%3Ffamily%3DArchitects%2BDaughter;fillColor=#d5e8d4;strokeColor=#82b366;" parent="1" vertex="1">
          <mxGeometry x="568" y="1547" width="66" height="60" as="geometry" />
        </mxCell>
        <mxCell id="wSZoaBw1oIZxFJjY68Rt-109" value="&lt;b&gt;&lt;font style=&quot;font-size: 18px;&quot;&gt;模式串T&lt;/font&gt;&lt;/b&gt;" style="text;html=1;align=center;verticalAlign=middle;whiteSpace=wrap;rounded=0;" parent="1" vertex="1">
          <mxGeometry x="205" y="1552" width="90" height="30" as="geometry" />
        </mxCell>
        <mxCell id="wSZoaBw1oIZxFJjY68Rt-110" value="&lt;font face=&quot;Tahoma&quot;&gt;&lt;span style=&quot;font-size: 24px;&quot;&gt;&lt;b&gt;&amp;nbsp;&lt;/b&gt;&lt;/span&gt;&lt;/font&gt;" style="rounded=0;whiteSpace=wrap;html=1;hachureGap=4;fontFamily=Architects Daughter;fontSource=https%3A%2F%2Ffonts.googleapis.com%2Fcss%3Ffamily%3DArchitects%2BDaughter;fillColor=#d5e8d4;strokeColor=#82b366;" parent="1" vertex="1">
          <mxGeometry x="632" y="1547" width="66" height="60" as="geometry" />
        </mxCell>
        <mxCell id="wSZoaBw1oIZxFJjY68Rt-114" style="edgeStyle=orthogonalEdgeStyle;rounded=0;orthogonalLoop=1;jettySize=auto;html=1;entryX=0.5;entryY=0;entryDx=0;entryDy=0;curved=1;exitX=0.5;exitY=0;exitDx=0;exitDy=0;dashed=1;dashPattern=8 8;" parent="1" source="wSZoaBw1oIZxFJjY68Rt-111" target="wSZoaBw1oIZxFJjY68Rt-85" edge="1">
          <mxGeometry relative="1" as="geometry" />
        </mxCell>
        <mxCell id="wSZoaBw1oIZxFJjY68Rt-111" value="&lt;b&gt;&lt;font style=&quot;font-size: 18px;&quot;&gt;i&lt;/font&gt;&lt;/b&gt;" style="text;html=1;align=center;verticalAlign=middle;whiteSpace=wrap;rounded=0;" parent="1" vertex="1">
          <mxGeometry x="554" y="1334" width="90" height="30" as="geometry" />
        </mxCell>
        <mxCell id="wSZoaBw1oIZxFJjY68Rt-113" style="edgeStyle=orthogonalEdgeStyle;rounded=0;orthogonalLoop=1;jettySize=auto;html=1;entryX=0.5;entryY=1;entryDx=0;entryDy=0;curved=1;dashed=1;dashPattern=8 8;" parent="1" source="wSZoaBw1oIZxFJjY68Rt-112" target="wSZoaBw1oIZxFJjY68Rt-105" edge="1">
          <mxGeometry relative="1" as="geometry">
            <Array as="points">
              <mxPoint x="585" y="1672" />
              <mxPoint x="404" y="1672" />
            </Array>
          </mxGeometry>
        </mxCell>
        <mxCell id="wSZoaBw1oIZxFJjY68Rt-112" value="&lt;b&gt;&lt;font style=&quot;font-size: 18px;&quot;&gt;j&lt;/font&gt;&lt;/b&gt;" style="text;html=1;align=center;verticalAlign=middle;whiteSpace=wrap;rounded=0;" parent="1" vertex="1">
          <mxGeometry x="560" y="1611" width="90" height="30" as="geometry" />
        </mxCell>
        <mxCell id="wSZoaBw1oIZxFJjY68Rt-115" value="&lt;b&gt;&lt;font style=&quot;font-size: 18px;&quot;&gt;回溯&lt;/font&gt;&lt;/b&gt;" style="text;html=1;align=center;verticalAlign=middle;whiteSpace=wrap;rounded=0;" parent="1" vertex="1">
          <mxGeometry x="492" y="1280" width="90" height="30" as="geometry" />
        </mxCell>
        <mxCell id="wSZoaBw1oIZxFJjY68Rt-116" value="&lt;b&gt;&lt;font style=&quot;font-size: 18px;&quot;&gt;回溯&lt;/font&gt;&lt;/b&gt;" style="text;html=1;align=center;verticalAlign=middle;whiteSpace=wrap;rounded=0;" parent="1" vertex="1">
          <mxGeometry x="470" y="1682" width="90" height="30" as="geometry" />
        </mxCell>
        <mxCell id="wSZoaBw1oIZxFJjY68Rt-117" value="&lt;b&gt;&lt;font style=&quot;font-size: 18px;&quot;&gt;思考：i的回溯值怎么计算&lt;/font&gt;&lt;/b&gt;" style="text;html=1;align=center;verticalAlign=middle;whiteSpace=wrap;rounded=0;" parent="1" vertex="1">
          <mxGeometry x="168" y="1284" width="212" height="30" as="geometry" />
        </mxCell>
        <mxCell id="wSZoaBw1oIZxFJjY68Rt-118" value="&lt;b&gt;&lt;font style=&quot;color: rgb(255, 51, 51); font-size: 24px;&quot;&gt;i=i-j+1&lt;/font&gt;&lt;/b&gt;" style="text;html=1;align=center;verticalAlign=middle;whiteSpace=wrap;rounded=0;" parent="1" vertex="1">
          <mxGeometry x="700" y="1280" width="90" height="30" as="geometry" />
        </mxCell>
        <mxCell id="wSZoaBw1oIZxFJjY68Rt-119" value="&lt;b&gt;&lt;font style=&quot;font-size: 18px;&quot;&gt;j代表当前匹配的串的长度，也代表主串移动了多少位&lt;/font&gt;&lt;/b&gt;" style="text;html=1;align=center;verticalAlign=middle;whiteSpace=wrap;rounded=0;" parent="1" vertex="1">
          <mxGeometry x="746" y="1552" width="252" height="30" as="geometry" />
        </mxCell>
        <mxCell id="L9rzSpkOIc69LBoFfqgj-1" value="&lt;b&gt;&lt;font style=&quot;font-size: 18px;&quot;&gt;BF算法&lt;/font&gt;&lt;/b&gt;" style="text;html=1;align=center;verticalAlign=middle;whiteSpace=wrap;rounded=0;" vertex="1" parent="1">
          <mxGeometry x="370" y="15" width="90" height="30" as="geometry" />
        </mxCell>
        <mxCell id="L9rzSpkOIc69LBoFfqgj-2" value="&lt;b&gt;&lt;font style=&quot;font-size: 18px;&quot;&gt;KMP算法&lt;/font&gt;&lt;/b&gt;" style="text;html=1;align=center;verticalAlign=middle;whiteSpace=wrap;rounded=0;" vertex="1" parent="1">
          <mxGeometry x="469" y="1858" width="90" height="30" as="geometry" />
        </mxCell>
        <mxCell id="L9rzSpkOIc69LBoFfqgj-3" value="&lt;b&gt;&lt;font face=&quot;Tahoma&quot; style=&quot;font-size: 24px;&quot;&gt;a&lt;/font&gt;&lt;/b&gt;" style="rounded=0;whiteSpace=wrap;html=1;hachureGap=4;fontFamily=Architects Daughter;fontSource=https%3A%2F%2Ffonts.googleapis.com%2Fcss%3Ffamily%3DArchitects%2BDaughter;fillColor=#dae8fc;strokeColor=#6c8ebf;" vertex="1" parent="1">
          <mxGeometry x="225" y="1958" width="66" height="60" as="geometry" />
        </mxCell>
        <mxCell id="L9rzSpkOIc69LBoFfqgj-4" value="&lt;b&gt;&lt;font face=&quot;Tahoma&quot; style=&quot;font-size: 24px;&quot;&gt;b&lt;/font&gt;&lt;/b&gt;" style="rounded=0;whiteSpace=wrap;html=1;hachureGap=4;fontFamily=Architects Daughter;fontSource=https%3A%2F%2Ffonts.googleapis.com%2Fcss%3Ffamily%3DArchitects%2BDaughter;fillColor=#dae8fc;strokeColor=#6c8ebf;" vertex="1" parent="1">
          <mxGeometry x="291" y="1958" width="66" height="60" as="geometry" />
        </mxCell>
        <mxCell id="L9rzSpkOIc69LBoFfqgj-5" value="&lt;b&gt;&lt;font face=&quot;Tahoma&quot; style=&quot;font-size: 24px;&quot;&gt;a&lt;/font&gt;&lt;/b&gt;" style="rounded=0;whiteSpace=wrap;html=1;hachureGap=4;fontFamily=Architects Daughter;fontSource=https%3A%2F%2Ffonts.googleapis.com%2Fcss%3Ffamily%3DArchitects%2BDaughter;fillColor=#008a00;strokeColor=#005700;fontColor=#ffffff;" vertex="1" parent="1">
          <mxGeometry x="489" y="1958" width="66" height="60" as="geometry" />
        </mxCell>
        <mxCell id="L9rzSpkOIc69LBoFfqgj-6" value="&lt;b&gt;&lt;font face=&quot;Tahoma&quot; style=&quot;font-size: 24px;&quot;&gt;b&lt;/font&gt;&lt;/b&gt;" style="rounded=0;whiteSpace=wrap;html=1;hachureGap=4;fontFamily=Architects Daughter;fontSource=https%3A%2F%2Ffonts.googleapis.com%2Fcss%3Ffamily%3DArchitects%2BDaughter;fillColor=#008a00;strokeColor=#005700;fontColor=#ffffff;" vertex="1" parent="1">
          <mxGeometry x="553" y="1958" width="66" height="60" as="geometry" />
        </mxCell>
        <mxCell id="L9rzSpkOIc69LBoFfqgj-7" value="&lt;b&gt;&lt;font face=&quot;Tahoma&quot; style=&quot;font-size: 24px;&quot;&gt;d&lt;/font&gt;&lt;/b&gt;" style="rounded=0;whiteSpace=wrap;html=1;hachureGap=4;fontFamily=Architects Daughter;fontSource=https%3A%2F%2Ffonts.googleapis.com%2Fcss%3Ffamily%3DArchitects%2BDaughter;fillColor=#dae8fc;strokeColor=#6c8ebf;" vertex="1" parent="1">
          <mxGeometry x="423" y="1958" width="66" height="60" as="geometry" />
        </mxCell>
        <mxCell id="L9rzSpkOIc69LBoFfqgj-8" value="&lt;b&gt;&lt;font face=&quot;Tahoma&quot; style=&quot;font-size: 24px; color: rgb(255, 255, 255);&quot;&gt;e&lt;/font&gt;&lt;/b&gt;" style="rounded=0;whiteSpace=wrap;html=1;hachureGap=4;fontFamily=Architects Daughter;fontSource=https%3A%2F%2Ffonts.googleapis.com%2Fcss%3Ffamily%3DArchitects%2BDaughter;fillColor=#d80073;strokeColor=#A50040;fontColor=#ffffff;" vertex="1" parent="1">
          <mxGeometry x="615" y="1958" width="66" height="60" as="geometry" />
        </mxCell>
        <mxCell id="L9rzSpkOIc69LBoFfqgj-9" value="&lt;b&gt;&lt;font face=&quot;Tahoma&quot; style=&quot;font-size: 24px;&quot;&gt;c&lt;/font&gt;&lt;/b&gt;" style="rounded=0;whiteSpace=wrap;html=1;hachureGap=4;fontFamily=Architects Daughter;fontSource=https%3A%2F%2Ffonts.googleapis.com%2Fcss%3Ffamily%3DArchitects%2BDaughter;fillColor=#dae8fc;strokeColor=#6c8ebf;" vertex="1" parent="1">
          <mxGeometry x="357" y="1958" width="66" height="60" as="geometry" />
        </mxCell>
        <mxCell id="L9rzSpkOIc69LBoFfqgj-10" value="&lt;b&gt;&lt;font style=&quot;font-size: 18px;&quot;&gt;主串S&lt;/font&gt;&lt;/b&gt;" style="text;html=1;align=center;verticalAlign=middle;whiteSpace=wrap;rounded=0;" vertex="1" parent="1">
          <mxGeometry x="123" y="1975" width="90" height="30" as="geometry" />
        </mxCell>
        <mxCell id="L9rzSpkOIc69LBoFfqgj-11" value="&lt;b&gt;&lt;font style=&quot;font-size: 18px;&quot;&gt;0&lt;/font&gt;&lt;/b&gt;" style="text;html=1;align=center;verticalAlign=middle;whiteSpace=wrap;rounded=0;" vertex="1" parent="1">
          <mxGeometry x="213" y="1924" width="90" height="30" as="geometry" />
        </mxCell>
        <mxCell id="L9rzSpkOIc69LBoFfqgj-12" value="&lt;b&gt;&lt;font style=&quot;font-size: 18px;&quot;&gt;1&lt;/font&gt;&lt;/b&gt;" style="text;html=1;align=center;verticalAlign=middle;whiteSpace=wrap;rounded=0;" vertex="1" parent="1">
          <mxGeometry x="277" y="1924" width="90" height="30" as="geometry" />
        </mxCell>
        <mxCell id="L9rzSpkOIc69LBoFfqgj-13" value="&lt;b&gt;&lt;font style=&quot;font-size: 18px;&quot;&gt;2&lt;/font&gt;&lt;/b&gt;" style="text;html=1;align=center;verticalAlign=middle;whiteSpace=wrap;rounded=0;" vertex="1" parent="1">
          <mxGeometry x="342" y="1924" width="90" height="30" as="geometry" />
        </mxCell>
        <mxCell id="L9rzSpkOIc69LBoFfqgj-14" value="&lt;b&gt;&lt;font style=&quot;font-size: 18px;&quot;&gt;3&lt;/font&gt;&lt;/b&gt;" style="text;html=1;align=center;verticalAlign=middle;whiteSpace=wrap;rounded=0;" vertex="1" parent="1">
          <mxGeometry x="411" y="1924" width="90" height="30" as="geometry" />
        </mxCell>
        <mxCell id="L9rzSpkOIc69LBoFfqgj-15" value="&lt;b&gt;&lt;font style=&quot;font-size: 18px;&quot;&gt;4&lt;/font&gt;&lt;/b&gt;" style="text;html=1;align=center;verticalAlign=middle;whiteSpace=wrap;rounded=0;" vertex="1" parent="1">
          <mxGeometry x="477" y="1924" width="90" height="30" as="geometry" />
        </mxCell>
        <mxCell id="L9rzSpkOIc69LBoFfqgj-16" value="&lt;b&gt;&lt;font style=&quot;font-size: 18px;&quot;&gt;5&lt;/font&gt;&lt;/b&gt;" style="text;html=1;align=center;verticalAlign=middle;whiteSpace=wrap;rounded=0;" vertex="1" parent="1">
          <mxGeometry x="537" y="1924" width="90" height="30" as="geometry" />
        </mxCell>
        <mxCell id="L9rzSpkOIc69LBoFfqgj-17" value="&lt;b&gt;&lt;font style=&quot;font-size: 18px;&quot;&gt;6&lt;/font&gt;&lt;/b&gt;" style="text;html=1;align=center;verticalAlign=middle;whiteSpace=wrap;rounded=0;" vertex="1" parent="1">
          <mxGeometry x="601" y="1928" width="90" height="30" as="geometry" />
        </mxCell>
        <mxCell id="L9rzSpkOIc69LBoFfqgj-18" value="&lt;b&gt;&lt;font style=&quot;font-size: 18px;&quot;&gt;下标&lt;/font&gt;&lt;/b&gt;" style="text;html=1;align=center;verticalAlign=middle;whiteSpace=wrap;rounded=0;" vertex="1" parent="1">
          <mxGeometry x="127" y="1924" width="90" height="30" as="geometry" />
        </mxCell>
        <mxCell id="L9rzSpkOIc69LBoFfqgj-19" value="&lt;b&gt;&lt;font face=&quot;Tahoma&quot; style=&quot;font-size: 24px;&quot;&gt;a&lt;/font&gt;&lt;/b&gt;" style="rounded=0;whiteSpace=wrap;html=1;hachureGap=4;fontFamily=Architects Daughter;fontSource=https%3A%2F%2Ffonts.googleapis.com%2Fcss%3Ffamily%3DArchitects%2BDaughter;fillColor=#dae8fc;strokeColor=#6c8ebf;" vertex="1" parent="1">
          <mxGeometry x="681" y="1958" width="66" height="60" as="geometry" />
        </mxCell>
        <mxCell id="L9rzSpkOIc69LBoFfqgj-20" value="&lt;b&gt;&lt;font face=&quot;Tahoma&quot; style=&quot;font-size: 24px;&quot;&gt;b&lt;/font&gt;&lt;/b&gt;" style="rounded=0;whiteSpace=wrap;html=1;hachureGap=4;fontFamily=Architects Daughter;fontSource=https%3A%2F%2Ffonts.googleapis.com%2Fcss%3Ffamily%3DArchitects%2BDaughter;fillColor=#dae8fc;strokeColor=#6c8ebf;" vertex="1" parent="1">
          <mxGeometry x="747" y="1958" width="66" height="60" as="geometry" />
        </mxCell>
        <mxCell id="L9rzSpkOIc69LBoFfqgj-21" value="&lt;b&gt;&lt;font face=&quot;Tahoma&quot; style=&quot;font-size: 24px;&quot;&gt;c&lt;/font&gt;&lt;/b&gt;" style="rounded=0;whiteSpace=wrap;html=1;hachureGap=4;fontFamily=Architects Daughter;fontSource=https%3A%2F%2Ffonts.googleapis.com%2Fcss%3Ffamily%3DArchitects%2BDaughter;fillColor=#dae8fc;strokeColor=#6c8ebf;" vertex="1" parent="1">
          <mxGeometry x="813" y="1958" width="66" height="60" as="geometry" />
        </mxCell>
        <mxCell id="L9rzSpkOIc69LBoFfqgj-22" value="&lt;span style=&quot;font-size: 18px;&quot;&gt;&lt;b&gt;7&lt;/b&gt;&lt;/span&gt;" style="text;html=1;align=center;verticalAlign=middle;whiteSpace=wrap;rounded=0;" vertex="1" parent="1">
          <mxGeometry x="669" y="1928" width="90" height="30" as="geometry" />
        </mxCell>
        <mxCell id="L9rzSpkOIc69LBoFfqgj-23" value="&lt;b&gt;&lt;font face=&quot;Tahoma&quot; style=&quot;font-size: 24px;&quot;&gt;a&lt;/font&gt;&lt;/b&gt;" style="rounded=0;whiteSpace=wrap;html=1;hachureGap=4;fontFamily=Architects Daughter;fontSource=https%3A%2F%2Ffonts.googleapis.com%2Fcss%3Ffamily%3DArchitects%2BDaughter;fillColor=#dae8fc;strokeColor=#6c8ebf;" vertex="1" parent="1">
          <mxGeometry x="942" y="1958" width="66" height="60" as="geometry" />
        </mxCell>
        <mxCell id="L9rzSpkOIc69LBoFfqgj-24" value="&lt;b&gt;&lt;font face=&quot;Tahoma&quot; style=&quot;font-size: 24px;&quot;&gt;d&lt;/font&gt;&lt;/b&gt;" style="rounded=0;whiteSpace=wrap;html=1;hachureGap=4;fontFamily=Architects Daughter;fontSource=https%3A%2F%2Ffonts.googleapis.com%2Fcss%3Ffamily%3DArchitects%2BDaughter;fillColor=#dae8fc;strokeColor=#6c8ebf;" vertex="1" parent="1">
          <mxGeometry x="876" y="1958" width="66" height="60" as="geometry" />
        </mxCell>
        <mxCell id="L9rzSpkOIc69LBoFfqgj-25" value="&lt;b&gt;&lt;font style=&quot;font-size: 18px;&quot;&gt;11&lt;/font&gt;&lt;/b&gt;" style="text;html=1;align=center;verticalAlign=middle;whiteSpace=wrap;rounded=0;" vertex="1" parent="1">
          <mxGeometry x="930" y="1924" width="90" height="30" as="geometry" />
        </mxCell>
        <mxCell id="L9rzSpkOIc69LBoFfqgj-26" value="&lt;b&gt;&lt;font style=&quot;font-size: 18px;&quot;&gt;9&lt;/font&gt;&lt;/b&gt;" style="text;html=1;align=center;verticalAlign=middle;whiteSpace=wrap;rounded=0;" vertex="1" parent="1">
          <mxGeometry x="794" y="1924" width="90" height="30" as="geometry" />
        </mxCell>
        <mxCell id="L9rzSpkOIc69LBoFfqgj-27" value="&lt;b&gt;&lt;font style=&quot;font-size: 18px;&quot;&gt;8&lt;/font&gt;&lt;/b&gt;" style="text;html=1;align=center;verticalAlign=middle;whiteSpace=wrap;rounded=0;" vertex="1" parent="1">
          <mxGeometry x="735" y="1928" width="90" height="30" as="geometry" />
        </mxCell>
        <mxCell id="L9rzSpkOIc69LBoFfqgj-28" value="&lt;b&gt;&lt;font style=&quot;font-size: 18px;&quot;&gt;10&lt;/font&gt;&lt;/b&gt;" style="text;html=1;align=center;verticalAlign=middle;whiteSpace=wrap;rounded=0;" vertex="1" parent="1">
          <mxGeometry x="858" y="1920" width="90" height="30" as="geometry" />
        </mxCell>
        <mxCell id="L9rzSpkOIc69LBoFfqgj-29" value="&lt;b&gt;&lt;font face=&quot;Tahoma&quot; style=&quot;font-size: 24px;&quot;&gt;b&lt;/font&gt;&lt;/b&gt;" style="rounded=0;whiteSpace=wrap;html=1;hachureGap=4;fontFamily=Architects Daughter;fontSource=https%3A%2F%2Ffonts.googleapis.com%2Fcss%3Ffamily%3DArchitects%2BDaughter;fillColor=#dae8fc;strokeColor=#6c8ebf;" vertex="1" parent="1">
          <mxGeometry x="1008" y="1958" width="66" height="60" as="geometry" />
        </mxCell>
        <mxCell id="L9rzSpkOIc69LBoFfqgj-30" value="&lt;b&gt;&lt;font style=&quot;font-size: 18px;&quot;&gt;12&lt;/font&gt;&lt;/b&gt;" style="text;html=1;align=center;verticalAlign=middle;whiteSpace=wrap;rounded=0;" vertex="1" parent="1">
          <mxGeometry x="989" y="1924" width="90" height="30" as="geometry" />
        </mxCell>
        <mxCell id="L9rzSpkOIc69LBoFfqgj-31" value="&lt;b&gt;&lt;font face=&quot;Tahoma&quot; style=&quot;font-size: 24px;&quot;&gt;a&lt;/font&gt;&lt;/b&gt;" style="rounded=0;whiteSpace=wrap;html=1;hachureGap=4;fontFamily=Architects Daughter;fontSource=https%3A%2F%2Ffonts.googleapis.com%2Fcss%3Ffamily%3DArchitects%2BDaughter;fillColor=#008a00;strokeColor=#005700;fontColor=#ffffff;" vertex="1" parent="1">
          <mxGeometry x="220" y="2121" width="66" height="60" as="geometry" />
        </mxCell>
        <mxCell id="L9rzSpkOIc69LBoFfqgj-32" value="&lt;b&gt;&lt;font face=&quot;Tahoma&quot; style=&quot;font-size: 24px;&quot;&gt;b&lt;/font&gt;&lt;/b&gt;" style="rounded=0;whiteSpace=wrap;html=1;hachureGap=4;fontFamily=Architects Daughter;fontSource=https%3A%2F%2Ffonts.googleapis.com%2Fcss%3Ffamily%3DArchitects%2BDaughter;fillColor=#008a00;strokeColor=#005700;fontColor=#ffffff;" vertex="1" parent="1">
          <mxGeometry x="286" y="2121" width="66" height="60" as="geometry" />
        </mxCell>
        <mxCell id="L9rzSpkOIc69LBoFfqgj-33" value="&lt;b&gt;&lt;font face=&quot;Tahoma&quot; style=&quot;font-size: 24px;&quot;&gt;a&lt;/font&gt;&lt;/b&gt;" style="rounded=0;whiteSpace=wrap;html=1;hachureGap=4;fontFamily=Architects Daughter;fontSource=https%3A%2F%2Ffonts.googleapis.com%2Fcss%3Ffamily%3DArchitects%2BDaughter;fillColor=#008a00;strokeColor=#005700;fontColor=#ffffff;" vertex="1" parent="1">
          <mxGeometry x="484" y="2121" width="66" height="60" as="geometry" />
        </mxCell>
        <mxCell id="L9rzSpkOIc69LBoFfqgj-34" value="&lt;b&gt;&lt;font face=&quot;Tahoma&quot; style=&quot;font-size: 24px;&quot;&gt;b&lt;/font&gt;&lt;/b&gt;" style="rounded=0;whiteSpace=wrap;html=1;hachureGap=4;fontFamily=Architects Daughter;fontSource=https%3A%2F%2Ffonts.googleapis.com%2Fcss%3Ffamily%3DArchitects%2BDaughter;fillColor=#008a00;strokeColor=#005700;fontColor=#ffffff;" vertex="1" parent="1">
          <mxGeometry x="548" y="2121" width="66" height="60" as="geometry" />
        </mxCell>
        <mxCell id="L9rzSpkOIc69LBoFfqgj-35" value="&lt;b&gt;&lt;font face=&quot;Tahoma&quot; style=&quot;font-size: 24px;&quot;&gt;d&lt;/font&gt;&lt;/b&gt;" style="rounded=0;whiteSpace=wrap;html=1;hachureGap=4;fontFamily=Architects Daughter;fontSource=https%3A%2F%2Ffonts.googleapis.com%2Fcss%3Ffamily%3DArchitects%2BDaughter;fillColor=#d5e8d4;strokeColor=#82b366;" vertex="1" parent="1">
          <mxGeometry x="418" y="2121" width="66" height="60" as="geometry" />
        </mxCell>
        <mxCell id="L9rzSpkOIc69LBoFfqgj-36" value="&lt;b&gt;&lt;font face=&quot;Tahoma&quot; style=&quot;font-size: 24px; color: rgb(255, 255, 255);&quot;&gt;d&lt;/font&gt;&lt;/b&gt;" style="rounded=0;whiteSpace=wrap;html=1;hachureGap=4;fontFamily=Architects Daughter;fontSource=https%3A%2F%2Ffonts.googleapis.com%2Fcss%3Ffamily%3DArchitects%2BDaughter;fillColor=#d80073;strokeColor=#A50040;fontColor=#ffffff;" vertex="1" parent="1">
          <mxGeometry x="610" y="2121" width="66" height="60" as="geometry" />
        </mxCell>
        <mxCell id="L9rzSpkOIc69LBoFfqgj-37" value="&lt;b&gt;&lt;font face=&quot;Tahoma&quot; style=&quot;font-size: 24px;&quot;&gt;c&lt;/font&gt;&lt;/b&gt;" style="rounded=0;whiteSpace=wrap;html=1;hachureGap=4;fontFamily=Architects Daughter;fontSource=https%3A%2F%2Ffonts.googleapis.com%2Fcss%3Ffamily%3DArchitects%2BDaughter;fillColor=#d5e8d4;strokeColor=#82b366;" vertex="1" parent="1">
          <mxGeometry x="352" y="2121" width="66" height="60" as="geometry" />
        </mxCell>
        <mxCell id="L9rzSpkOIc69LBoFfqgj-38" value="&lt;b&gt;&lt;font style=&quot;font-size: 18px;&quot;&gt;0&lt;/font&gt;&lt;/b&gt;" style="text;html=1;align=center;verticalAlign=middle;whiteSpace=wrap;rounded=0;" vertex="1" parent="1">
          <mxGeometry x="208" y="2087" width="90" height="30" as="geometry" />
        </mxCell>
        <mxCell id="L9rzSpkOIc69LBoFfqgj-39" value="&lt;b&gt;&lt;font style=&quot;font-size: 18px;&quot;&gt;1&lt;/font&gt;&lt;/b&gt;" style="text;html=1;align=center;verticalAlign=middle;whiteSpace=wrap;rounded=0;" vertex="1" parent="1">
          <mxGeometry x="272" y="2087" width="90" height="30" as="geometry" />
        </mxCell>
        <mxCell id="L9rzSpkOIc69LBoFfqgj-40" value="&lt;b&gt;&lt;font style=&quot;font-size: 18px;&quot;&gt;2&lt;/font&gt;&lt;/b&gt;" style="text;html=1;align=center;verticalAlign=middle;whiteSpace=wrap;rounded=0;" vertex="1" parent="1">
          <mxGeometry x="337" y="2087" width="90" height="30" as="geometry" />
        </mxCell>
        <mxCell id="L9rzSpkOIc69LBoFfqgj-41" value="&lt;b&gt;&lt;font style=&quot;font-size: 18px;&quot;&gt;3&lt;/font&gt;&lt;/b&gt;" style="text;html=1;align=center;verticalAlign=middle;whiteSpace=wrap;rounded=0;" vertex="1" parent="1">
          <mxGeometry x="406" y="2087" width="90" height="30" as="geometry" />
        </mxCell>
        <mxCell id="L9rzSpkOIc69LBoFfqgj-42" value="&lt;b&gt;&lt;font style=&quot;font-size: 18px;&quot;&gt;4&lt;/font&gt;&lt;/b&gt;" style="text;html=1;align=center;verticalAlign=middle;whiteSpace=wrap;rounded=0;" vertex="1" parent="1">
          <mxGeometry x="472" y="2087" width="90" height="30" as="geometry" />
        </mxCell>
        <mxCell id="L9rzSpkOIc69LBoFfqgj-43" value="&lt;b&gt;&lt;font style=&quot;font-size: 18px;&quot;&gt;5&lt;/font&gt;&lt;/b&gt;" style="text;html=1;align=center;verticalAlign=middle;whiteSpace=wrap;rounded=0;" vertex="1" parent="1">
          <mxGeometry x="532" y="2087" width="90" height="30" as="geometry" />
        </mxCell>
        <mxCell id="L9rzSpkOIc69LBoFfqgj-44" value="&lt;b&gt;&lt;font style=&quot;font-size: 18px;&quot;&gt;模式串T&lt;/font&gt;&lt;/b&gt;" style="text;html=1;align=center;verticalAlign=middle;whiteSpace=wrap;rounded=0;" vertex="1" parent="1">
          <mxGeometry x="133" y="2130" width="90" height="30" as="geometry" />
        </mxCell>
        <mxCell id="L9rzSpkOIc69LBoFfqgj-45" value="&lt;b&gt;&lt;font style=&quot;font-size: 18px;&quot;&gt;第一趟：&lt;/font&gt;&lt;/b&gt;" style="text;html=1;align=center;verticalAlign=middle;whiteSpace=wrap;rounded=0;" vertex="1" parent="1">
          <mxGeometry x="146" y="2036" width="90" height="30" as="geometry" />
        </mxCell>
        <mxCell id="L9rzSpkOIc69LBoFfqgj-47" value="&lt;b&gt;&lt;font face=&quot;Tahoma&quot; style=&quot;font-size: 24px;&quot;&gt;a&lt;/font&gt;&lt;/b&gt;" style="rounded=0;whiteSpace=wrap;html=1;hachureGap=4;fontFamily=Architects Daughter;fontSource=https%3A%2F%2Ffonts.googleapis.com%2Fcss%3Ffamily%3DArchitects%2BDaughter;fillColor=#dae8fc;strokeColor=#6c8ebf;" vertex="1" parent="1">
          <mxGeometry x="227" y="2280" width="66" height="60" as="geometry" />
        </mxCell>
        <mxCell id="L9rzSpkOIc69LBoFfqgj-48" value="&lt;b&gt;&lt;font face=&quot;Tahoma&quot; style=&quot;font-size: 24px;&quot;&gt;b&lt;/font&gt;&lt;/b&gt;" style="rounded=0;whiteSpace=wrap;html=1;hachureGap=4;fontFamily=Architects Daughter;fontSource=https%3A%2F%2Ffonts.googleapis.com%2Fcss%3Ffamily%3DArchitects%2BDaughter;fillColor=#dae8fc;strokeColor=#6c8ebf;" vertex="1" parent="1">
          <mxGeometry x="293" y="2280" width="66" height="60" as="geometry" />
        </mxCell>
        <mxCell id="L9rzSpkOIc69LBoFfqgj-49" value="&lt;b&gt;&lt;font face=&quot;Tahoma&quot; style=&quot;font-size: 24px;&quot;&gt;a&lt;/font&gt;&lt;/b&gt;" style="rounded=0;whiteSpace=wrap;html=1;hachureGap=4;fontFamily=Architects Daughter;fontSource=https%3A%2F%2Ffonts.googleapis.com%2Fcss%3Ffamily%3DArchitects%2BDaughter;fillColor=#008a00;strokeColor=#005700;fontColor=#ffffff;" vertex="1" parent="1">
          <mxGeometry x="491" y="2280" width="66" height="60" as="geometry" />
        </mxCell>
        <mxCell id="L9rzSpkOIc69LBoFfqgj-50" value="&lt;b&gt;&lt;font face=&quot;Tahoma&quot; style=&quot;font-size: 24px;&quot;&gt;b&lt;/font&gt;&lt;/b&gt;" style="rounded=0;whiteSpace=wrap;html=1;hachureGap=4;fontFamily=Architects Daughter;fontSource=https%3A%2F%2Ffonts.googleapis.com%2Fcss%3Ffamily%3DArchitects%2BDaughter;fillColor=#008a00;strokeColor=#005700;fontColor=#ffffff;" vertex="1" parent="1">
          <mxGeometry x="555" y="2280" width="66" height="60" as="geometry" />
        </mxCell>
        <mxCell id="L9rzSpkOIc69LBoFfqgj-51" value="&lt;b&gt;&lt;font face=&quot;Tahoma&quot; style=&quot;font-size: 24px;&quot;&gt;d&lt;/font&gt;&lt;/b&gt;" style="rounded=0;whiteSpace=wrap;html=1;hachureGap=4;fontFamily=Architects Daughter;fontSource=https%3A%2F%2Ffonts.googleapis.com%2Fcss%3Ffamily%3DArchitects%2BDaughter;fillColor=#dae8fc;strokeColor=#6c8ebf;" vertex="1" parent="1">
          <mxGeometry x="425" y="2280" width="66" height="60" as="geometry" />
        </mxCell>
        <mxCell id="L9rzSpkOIc69LBoFfqgj-52" value="&lt;b&gt;&lt;font face=&quot;Tahoma&quot; style=&quot;font-size: 24px; color: rgb(255, 255, 255);&quot;&gt;e&lt;/font&gt;&lt;/b&gt;" style="rounded=0;whiteSpace=wrap;html=1;hachureGap=4;fontFamily=Architects Daughter;fontSource=https%3A%2F%2Ffonts.googleapis.com%2Fcss%3Ffamily%3DArchitects%2BDaughter;fillColor=#d80073;strokeColor=#A50040;fontColor=#ffffff;" vertex="1" parent="1">
          <mxGeometry x="617" y="2280" width="66" height="60" as="geometry" />
        </mxCell>
        <mxCell id="L9rzSpkOIc69LBoFfqgj-53" value="&lt;b&gt;&lt;font face=&quot;Tahoma&quot; style=&quot;font-size: 24px;&quot;&gt;c&lt;/font&gt;&lt;/b&gt;" style="rounded=0;whiteSpace=wrap;html=1;hachureGap=4;fontFamily=Architects Daughter;fontSource=https%3A%2F%2Ffonts.googleapis.com%2Fcss%3Ffamily%3DArchitects%2BDaughter;fillColor=#dae8fc;strokeColor=#6c8ebf;" vertex="1" parent="1">
          <mxGeometry x="359" y="2280" width="66" height="60" as="geometry" />
        </mxCell>
        <mxCell id="L9rzSpkOIc69LBoFfqgj-54" value="&lt;b&gt;&lt;font style=&quot;font-size: 18px;&quot;&gt;0&lt;/font&gt;&lt;/b&gt;" style="text;html=1;align=center;verticalAlign=middle;whiteSpace=wrap;rounded=0;" vertex="1" parent="1">
          <mxGeometry x="215" y="2246" width="90" height="30" as="geometry" />
        </mxCell>
        <mxCell id="L9rzSpkOIc69LBoFfqgj-55" value="&lt;b&gt;&lt;font style=&quot;font-size: 18px;&quot;&gt;1&lt;/font&gt;&lt;/b&gt;" style="text;html=1;align=center;verticalAlign=middle;whiteSpace=wrap;rounded=0;" vertex="1" parent="1">
          <mxGeometry x="279" y="2246" width="90" height="30" as="geometry" />
        </mxCell>
        <mxCell id="L9rzSpkOIc69LBoFfqgj-56" value="&lt;b&gt;&lt;font style=&quot;font-size: 18px;&quot;&gt;2&lt;/font&gt;&lt;/b&gt;" style="text;html=1;align=center;verticalAlign=middle;whiteSpace=wrap;rounded=0;" vertex="1" parent="1">
          <mxGeometry x="344" y="2246" width="90" height="30" as="geometry" />
        </mxCell>
        <mxCell id="L9rzSpkOIc69LBoFfqgj-57" value="&lt;b&gt;&lt;font style=&quot;font-size: 18px;&quot;&gt;3&lt;/font&gt;&lt;/b&gt;" style="text;html=1;align=center;verticalAlign=middle;whiteSpace=wrap;rounded=0;" vertex="1" parent="1">
          <mxGeometry x="413" y="2246" width="90" height="30" as="geometry" />
        </mxCell>
        <mxCell id="L9rzSpkOIc69LBoFfqgj-58" value="&lt;b&gt;&lt;font style=&quot;font-size: 18px;&quot;&gt;4&lt;/font&gt;&lt;/b&gt;" style="text;html=1;align=center;verticalAlign=middle;whiteSpace=wrap;rounded=0;" vertex="1" parent="1">
          <mxGeometry x="479" y="2246" width="90" height="30" as="geometry" />
        </mxCell>
        <mxCell id="L9rzSpkOIc69LBoFfqgj-59" value="&lt;b&gt;&lt;font style=&quot;font-size: 18px;&quot;&gt;5&lt;/font&gt;&lt;/b&gt;" style="text;html=1;align=center;verticalAlign=middle;whiteSpace=wrap;rounded=0;" vertex="1" parent="1">
          <mxGeometry x="539" y="2246" width="90" height="30" as="geometry" />
        </mxCell>
        <mxCell id="L9rzSpkOIc69LBoFfqgj-60" value="&lt;b&gt;&lt;font style=&quot;font-size: 18px;&quot;&gt;6&lt;/font&gt;&lt;/b&gt;" style="text;html=1;align=center;verticalAlign=middle;whiteSpace=wrap;rounded=0;" vertex="1" parent="1">
          <mxGeometry x="603" y="2250" width="90" height="30" as="geometry" />
        </mxCell>
        <mxCell id="L9rzSpkOIc69LBoFfqgj-61" value="&lt;b&gt;&lt;font face=&quot;Tahoma&quot; style=&quot;font-size: 24px;&quot;&gt;a&lt;/font&gt;&lt;/b&gt;" style="rounded=0;whiteSpace=wrap;html=1;hachureGap=4;fontFamily=Architects Daughter;fontSource=https%3A%2F%2Ffonts.googleapis.com%2Fcss%3Ffamily%3DArchitects%2BDaughter;fillColor=#dae8fc;strokeColor=#6c8ebf;" vertex="1" parent="1">
          <mxGeometry x="683" y="2280" width="66" height="60" as="geometry" />
        </mxCell>
        <mxCell id="L9rzSpkOIc69LBoFfqgj-62" value="&lt;b&gt;&lt;font face=&quot;Tahoma&quot; style=&quot;font-size: 24px;&quot;&gt;b&lt;/font&gt;&lt;/b&gt;" style="rounded=0;whiteSpace=wrap;html=1;hachureGap=4;fontFamily=Architects Daughter;fontSource=https%3A%2F%2Ffonts.googleapis.com%2Fcss%3Ffamily%3DArchitects%2BDaughter;fillColor=#dae8fc;strokeColor=#6c8ebf;" vertex="1" parent="1">
          <mxGeometry x="749" y="2280" width="66" height="60" as="geometry" />
        </mxCell>
        <mxCell id="L9rzSpkOIc69LBoFfqgj-63" value="&lt;b&gt;&lt;font face=&quot;Tahoma&quot; style=&quot;font-size: 24px;&quot;&gt;c&lt;/font&gt;&lt;/b&gt;" style="rounded=0;whiteSpace=wrap;html=1;hachureGap=4;fontFamily=Architects Daughter;fontSource=https%3A%2F%2Ffonts.googleapis.com%2Fcss%3Ffamily%3DArchitects%2BDaughter;fillColor=#dae8fc;strokeColor=#6c8ebf;" vertex="1" parent="1">
          <mxGeometry x="815" y="2280" width="66" height="60" as="geometry" />
        </mxCell>
        <mxCell id="L9rzSpkOIc69LBoFfqgj-64" value="&lt;span style=&quot;font-size: 18px;&quot;&gt;&lt;b&gt;7&lt;/b&gt;&lt;/span&gt;" style="text;html=1;align=center;verticalAlign=middle;whiteSpace=wrap;rounded=0;" vertex="1" parent="1">
          <mxGeometry x="671" y="2250" width="90" height="30" as="geometry" />
        </mxCell>
        <mxCell id="L9rzSpkOIc69LBoFfqgj-65" value="&lt;b&gt;&lt;font face=&quot;Tahoma&quot; style=&quot;font-size: 24px;&quot;&gt;a&lt;/font&gt;&lt;/b&gt;" style="rounded=0;whiteSpace=wrap;html=1;hachureGap=4;fontFamily=Architects Daughter;fontSource=https%3A%2F%2Ffonts.googleapis.com%2Fcss%3Ffamily%3DArchitects%2BDaughter;fillColor=#dae8fc;strokeColor=#6c8ebf;" vertex="1" parent="1">
          <mxGeometry x="944" y="2280" width="66" height="60" as="geometry" />
        </mxCell>
        <mxCell id="L9rzSpkOIc69LBoFfqgj-66" value="&lt;b&gt;&lt;font face=&quot;Tahoma&quot; style=&quot;font-size: 24px;&quot;&gt;d&lt;/font&gt;&lt;/b&gt;" style="rounded=0;whiteSpace=wrap;html=1;hachureGap=4;fontFamily=Architects Daughter;fontSource=https%3A%2F%2Ffonts.googleapis.com%2Fcss%3Ffamily%3DArchitects%2BDaughter;fillColor=#dae8fc;strokeColor=#6c8ebf;" vertex="1" parent="1">
          <mxGeometry x="878" y="2280" width="66" height="60" as="geometry" />
        </mxCell>
        <mxCell id="L9rzSpkOIc69LBoFfqgj-67" value="&lt;b&gt;&lt;font style=&quot;font-size: 18px;&quot;&gt;11&lt;/font&gt;&lt;/b&gt;" style="text;html=1;align=center;verticalAlign=middle;whiteSpace=wrap;rounded=0;" vertex="1" parent="1">
          <mxGeometry x="932" y="2246" width="90" height="30" as="geometry" />
        </mxCell>
        <mxCell id="L9rzSpkOIc69LBoFfqgj-68" value="&lt;b&gt;&lt;font style=&quot;font-size: 18px;&quot;&gt;9&lt;/font&gt;&lt;/b&gt;" style="text;html=1;align=center;verticalAlign=middle;whiteSpace=wrap;rounded=0;" vertex="1" parent="1">
          <mxGeometry x="796" y="2246" width="90" height="30" as="geometry" />
        </mxCell>
        <mxCell id="L9rzSpkOIc69LBoFfqgj-69" value="&lt;b&gt;&lt;font style=&quot;font-size: 18px;&quot;&gt;8&lt;/font&gt;&lt;/b&gt;" style="text;html=1;align=center;verticalAlign=middle;whiteSpace=wrap;rounded=0;" vertex="1" parent="1">
          <mxGeometry x="737" y="2250" width="90" height="30" as="geometry" />
        </mxCell>
        <mxCell id="L9rzSpkOIc69LBoFfqgj-70" value="&lt;b&gt;&lt;font style=&quot;font-size: 18px;&quot;&gt;10&lt;/font&gt;&lt;/b&gt;" style="text;html=1;align=center;verticalAlign=middle;whiteSpace=wrap;rounded=0;" vertex="1" parent="1">
          <mxGeometry x="860" y="2242" width="90" height="30" as="geometry" />
        </mxCell>
        <mxCell id="L9rzSpkOIc69LBoFfqgj-71" value="&lt;b&gt;&lt;font face=&quot;Tahoma&quot; style=&quot;font-size: 24px;&quot;&gt;b&lt;/font&gt;&lt;/b&gt;" style="rounded=0;whiteSpace=wrap;html=1;hachureGap=4;fontFamily=Architects Daughter;fontSource=https%3A%2F%2Ffonts.googleapis.com%2Fcss%3Ffamily%3DArchitects%2BDaughter;fillColor=#dae8fc;strokeColor=#6c8ebf;" vertex="1" parent="1">
          <mxGeometry x="1010" y="2280" width="66" height="60" as="geometry" />
        </mxCell>
        <mxCell id="L9rzSpkOIc69LBoFfqgj-72" value="&lt;b&gt;&lt;font style=&quot;font-size: 18px;&quot;&gt;12&lt;/font&gt;&lt;/b&gt;" style="text;html=1;align=center;verticalAlign=middle;whiteSpace=wrap;rounded=0;" vertex="1" parent="1">
          <mxGeometry x="991" y="2246" width="90" height="30" as="geometry" />
        </mxCell>
        <mxCell id="L9rzSpkOIc69LBoFfqgj-73" value="&lt;b&gt;&lt;font face=&quot;Tahoma&quot; style=&quot;font-size: 24px;&quot;&gt;a&lt;/font&gt;&lt;/b&gt;" style="rounded=0;whiteSpace=wrap;html=1;hachureGap=4;fontFamily=Architects Daughter;fontSource=https%3A%2F%2Ffonts.googleapis.com%2Fcss%3Ffamily%3DArchitects%2BDaughter;fillColor=#008a00;strokeColor=#005700;fontColor=#ffffff;" vertex="1" parent="1">
          <mxGeometry x="496" y="2437" width="66" height="60" as="geometry" />
        </mxCell>
        <mxCell id="L9rzSpkOIc69LBoFfqgj-74" value="&lt;b&gt;&lt;font face=&quot;Tahoma&quot; style=&quot;font-size: 24px;&quot;&gt;b&lt;/font&gt;&lt;/b&gt;" style="rounded=0;whiteSpace=wrap;html=1;hachureGap=4;fontFamily=Architects Daughter;fontSource=https%3A%2F%2Ffonts.googleapis.com%2Fcss%3Ffamily%3DArchitects%2BDaughter;fillColor=#008a00;strokeColor=#005700;fontColor=#ffffff;" vertex="1" parent="1">
          <mxGeometry x="562" y="2437" width="66" height="60" as="geometry" />
        </mxCell>
        <mxCell id="L9rzSpkOIc69LBoFfqgj-75" value="&lt;b&gt;&lt;font face=&quot;Tahoma&quot; style=&quot;font-size: 24px;&quot;&gt;a&lt;/font&gt;&lt;/b&gt;" style="rounded=0;whiteSpace=wrap;html=1;hachureGap=4;fontFamily=Architects Daughter;fontSource=https%3A%2F%2Ffonts.googleapis.com%2Fcss%3Ffamily%3DArchitects%2BDaughter;fillColor=#d5e8d4;strokeColor=#82b366;" vertex="1" parent="1">
          <mxGeometry x="760" y="2437" width="66" height="60" as="geometry" />
        </mxCell>
        <mxCell id="L9rzSpkOIc69LBoFfqgj-76" value="&lt;b&gt;&lt;font face=&quot;Tahoma&quot; style=&quot;font-size: 24px;&quot;&gt;b&lt;/font&gt;&lt;/b&gt;" style="rounded=0;whiteSpace=wrap;html=1;hachureGap=4;fontFamily=Architects Daughter;fontSource=https%3A%2F%2Ffonts.googleapis.com%2Fcss%3Ffamily%3DArchitects%2BDaughter;fillColor=#d5e8d4;strokeColor=#82b366;" vertex="1" parent="1">
          <mxGeometry x="824" y="2437" width="66" height="60" as="geometry" />
        </mxCell>
        <mxCell id="L9rzSpkOIc69LBoFfqgj-77" value="&lt;b&gt;&lt;font face=&quot;Tahoma&quot; style=&quot;font-size: 24px;&quot;&gt;d&lt;/font&gt;&lt;/b&gt;" style="rounded=0;whiteSpace=wrap;html=1;hachureGap=4;fontFamily=Architects Daughter;fontSource=https%3A%2F%2Ffonts.googleapis.com%2Fcss%3Ffamily%3DArchitects%2BDaughter;fillColor=#d5e8d4;strokeColor=#82b366;" vertex="1" parent="1">
          <mxGeometry x="694" y="2437" width="66" height="60" as="geometry" />
        </mxCell>
        <mxCell id="L9rzSpkOIc69LBoFfqgj-78" value="&lt;b&gt;&lt;font face=&quot;Tahoma&quot; style=&quot;font-size: 24px; color: rgb(0, 0, 0);&quot;&gt;d&lt;/font&gt;&lt;/b&gt;" style="rounded=0;whiteSpace=wrap;html=1;hachureGap=4;fontFamily=Architects Daughter;fontSource=https%3A%2F%2Ffonts.googleapis.com%2Fcss%3Ffamily%3DArchitects%2BDaughter;fillColor=#d5e8d4;strokeColor=#82b366;" vertex="1" parent="1">
          <mxGeometry x="886" y="2437" width="66" height="60" as="geometry" />
        </mxCell>
        <mxCell id="L9rzSpkOIc69LBoFfqgj-79" value="&lt;b&gt;&lt;font face=&quot;Tahoma&quot; style=&quot;font-size: 24px;&quot;&gt;c&lt;/font&gt;&lt;/b&gt;" style="rounded=0;whiteSpace=wrap;html=1;hachureGap=4;fontFamily=Architects Daughter;fontSource=https%3A%2F%2Ffonts.googleapis.com%2Fcss%3Ffamily%3DArchitects%2BDaughter;fillColor=#d80073;strokeColor=#A50040;fontColor=#ffffff;" vertex="1" parent="1">
          <mxGeometry x="628" y="2437" width="66" height="60" as="geometry" />
        </mxCell>
        <mxCell id="L9rzSpkOIc69LBoFfqgj-80" value="&lt;b&gt;&lt;font style=&quot;font-size: 18px;&quot;&gt;0&lt;/font&gt;&lt;/b&gt;" style="text;html=1;align=center;verticalAlign=middle;whiteSpace=wrap;rounded=0;" vertex="1" parent="1">
          <mxGeometry x="484" y="2403" width="90" height="30" as="geometry" />
        </mxCell>
        <mxCell id="L9rzSpkOIc69LBoFfqgj-81" value="&lt;b&gt;&lt;font style=&quot;font-size: 18px;&quot;&gt;1&lt;/font&gt;&lt;/b&gt;" style="text;html=1;align=center;verticalAlign=middle;whiteSpace=wrap;rounded=0;" vertex="1" parent="1">
          <mxGeometry x="548" y="2403" width="90" height="30" as="geometry" />
        </mxCell>
        <mxCell id="L9rzSpkOIc69LBoFfqgj-82" value="&lt;b&gt;&lt;font style=&quot;font-size: 18px;&quot;&gt;2&lt;/font&gt;&lt;/b&gt;" style="text;html=1;align=center;verticalAlign=middle;whiteSpace=wrap;rounded=0;" vertex="1" parent="1">
          <mxGeometry x="613" y="2403" width="90" height="30" as="geometry" />
        </mxCell>
        <mxCell id="L9rzSpkOIc69LBoFfqgj-83" value="&lt;b&gt;&lt;font style=&quot;font-size: 18px;&quot;&gt;3&lt;/font&gt;&lt;/b&gt;" style="text;html=1;align=center;verticalAlign=middle;whiteSpace=wrap;rounded=0;" vertex="1" parent="1">
          <mxGeometry x="682" y="2403" width="90" height="30" as="geometry" />
        </mxCell>
        <mxCell id="L9rzSpkOIc69LBoFfqgj-84" value="&lt;b&gt;&lt;font style=&quot;font-size: 18px;&quot;&gt;4&lt;/font&gt;&lt;/b&gt;" style="text;html=1;align=center;verticalAlign=middle;whiteSpace=wrap;rounded=0;" vertex="1" parent="1">
          <mxGeometry x="748" y="2403" width="90" height="30" as="geometry" />
        </mxCell>
        <mxCell id="L9rzSpkOIc69LBoFfqgj-85" value="&lt;b&gt;&lt;font style=&quot;font-size: 18px;&quot;&gt;5&lt;/font&gt;&lt;/b&gt;" style="text;html=1;align=center;verticalAlign=middle;whiteSpace=wrap;rounded=0;" vertex="1" parent="1">
          <mxGeometry x="808" y="2403" width="90" height="30" as="geometry" />
        </mxCell>
        <mxCell id="L9rzSpkOIc69LBoFfqgj-86" value="&lt;b&gt;&lt;font style=&quot;font-size: 18px;&quot;&gt;第二趟：&lt;/font&gt;&lt;/b&gt;" style="text;html=1;align=center;verticalAlign=middle;whiteSpace=wrap;rounded=0;" vertex="1" parent="1">
          <mxGeometry x="146" y="2370" width="90" height="30" as="geometry" />
        </mxCell>
        <mxCell id="L9rzSpkOIc69LBoFfqgj-87" value="&lt;b&gt;&lt;font style=&quot;font-size: 18px;&quot;&gt;i&lt;/font&gt;&lt;/b&gt;" style="text;html=1;align=center;verticalAlign=middle;whiteSpace=wrap;rounded=0;" vertex="1" parent="1">
          <mxGeometry x="603" y="1874" width="90" height="35" as="geometry" />
        </mxCell>
        <mxCell id="L9rzSpkOIc69LBoFfqgj-88" value="&lt;b&gt;&lt;font style=&quot;font-size: 18px;&quot;&gt;j&lt;/font&gt;&lt;/b&gt;" style="text;html=1;align=center;verticalAlign=middle;whiteSpace=wrap;rounded=0;" vertex="1" parent="1">
          <mxGeometry x="603" y="2059" width="90" height="30" as="geometry" />
        </mxCell>
        <mxCell id="L9rzSpkOIc69LBoFfqgj-89" style="edgeStyle=orthogonalEdgeStyle;rounded=0;orthogonalLoop=1;jettySize=auto;html=1;entryX=0.576;entryY=0.15;entryDx=0;entryDy=0;entryPerimeter=0;" edge="1" parent="1" source="L9rzSpkOIc69LBoFfqgj-88" target="L9rzSpkOIc69LBoFfqgj-36">
          <mxGeometry relative="1" as="geometry" />
        </mxCell>
        <mxCell id="L9rzSpkOIc69LBoFfqgj-90" value="&lt;b&gt;&lt;font style=&quot;font-size: 18px; color: rgb(255, 51, 51);&quot;&gt;此时i，j指向的字符不等，但是可以证明它们之前的字符是匹配的&lt;/font&gt;&lt;/b&gt;" style="text;html=1;align=center;verticalAlign=middle;whiteSpace=wrap;rounded=0;" vertex="1" parent="1">
          <mxGeometry x="693" y="2069" width="241" height="30" as="geometry" />
        </mxCell>
        <mxCell id="L9rzSpkOIc69LBoFfqgj-91" value="&lt;b&gt;&lt;font style=&quot;font-size: 18px; color: rgb(255, 51, 51);&quot;&gt;i&lt;/font&gt;&lt;/b&gt;" style="text;html=1;align=center;verticalAlign=middle;whiteSpace=wrap;rounded=0;" vertex="1" parent="1">
          <mxGeometry x="610" y="2216" width="90" height="30" as="geometry" />
        </mxCell>
        <mxCell id="L9rzSpkOIc69LBoFfqgj-92" value="&lt;b&gt;&lt;font style=&quot;font-size: 18px; color: rgb(255, 51, 51);&quot;&gt;j&lt;/font&gt;&lt;/b&gt;" style="text;html=1;align=center;verticalAlign=middle;whiteSpace=wrap;rounded=0;" vertex="1" parent="1">
          <mxGeometry x="617" y="2370" width="90" height="30" as="geometry" />
        </mxCell>
        <mxCell id="L9rzSpkOIc69LBoFfqgj-93" value="&lt;b&gt;&lt;font style=&quot;font-size: 18px; color: rgb(255, 51, 51);&quot;&gt;模式串直接滑动到这里开始比较&lt;/font&gt;&lt;/b&gt;" style="text;html=1;align=center;verticalAlign=middle;whiteSpace=wrap;rounded=0;" vertex="1" parent="1">
          <mxGeometry x="179" y="2450" width="286" height="30" as="geometry" />
        </mxCell>
        <mxCell id="L9rzSpkOIc69LBoFfqgj-94" value="&lt;b&gt;&lt;font style=&quot;font-size: 18px; color: rgb(255, 51, 51);&quot;&gt;模式串移动的位数是4&lt;/font&gt;&lt;/b&gt;" style="text;html=1;align=center;verticalAlign=middle;whiteSpace=wrap;rounded=0;" vertex="1" parent="1">
          <mxGeometry x="239" y="2367" width="203" height="30" as="geometry" />
        </mxCell>
        <mxCell id="L9rzSpkOIc69LBoFfqgj-96" value="&lt;b&gt;&lt;font style=&quot;font-size: 18px; color: rgb(255, 51, 51);&quot;&gt;模式串移动的位数=模式串已匹配的字符数-失配位置前的最长前缀字符数&lt;/font&gt;&lt;/b&gt;" style="text;html=1;align=center;verticalAlign=middle;whiteSpace=wrap;rounded=0;" vertex="1" parent="1">
          <mxGeometry x="147" y="2503" width="308" height="30" as="geometry" />
        </mxCell>
      </root>
    </mxGraphModel>
  </diagram>
  <diagram id="DuW03pkRwDBtWUI0QAaC" name="区间dp">
    <mxGraphModel dx="1034" dy="540" grid="0" gridSize="10" guides="1" tooltips="1" connect="1" arrows="1" fold="1" page="1" pageScale="1" pageWidth="1654" pageHeight="2336" math="0" shadow="0">
      <root>
        <mxCell id="0" />
        <mxCell id="1" parent="0" />
        <mxCell id="dHgKwdIAT442UPLHBAof-1" value="&lt;span&gt;&lt;font&gt;石子合并问题&lt;/font&gt;&lt;/span&gt;" style="text;html=1;align=center;verticalAlign=middle;whiteSpace=wrap;rounded=0;fontSize=21;fontStyle=1" vertex="1" parent="1">
          <mxGeometry x="367" y="80" width="184" height="30" as="geometry" />
        </mxCell>
        <mxCell id="dHgKwdIAT442UPLHBAof-2" value="1" style="ellipse;whiteSpace=wrap;html=1;aspect=fixed;fillColor=#dae8fc;strokeColor=#6c8ebf;fontSize=21;fontStyle=1" vertex="1" parent="1">
          <mxGeometry x="159" y="186" width="80" height="80" as="geometry" />
        </mxCell>
        <mxCell id="dHgKwdIAT442UPLHBAof-3" value="3" style="ellipse;whiteSpace=wrap;html=1;aspect=fixed;fillColor=#dae8fc;strokeColor=#6c8ebf;fontSize=21;fontStyle=1" vertex="1" parent="1">
          <mxGeometry x="341" y="186" width="80" height="80" as="geometry" />
        </mxCell>
        <mxCell id="dHgKwdIAT442UPLHBAof-4" value="5" style="ellipse;whiteSpace=wrap;html=1;aspect=fixed;fillColor=#dae8fc;strokeColor=#6c8ebf;fontSize=21;fontStyle=1" vertex="1" parent="1">
          <mxGeometry x="519" y="186" width="80" height="80" as="geometry" />
        </mxCell>
        <mxCell id="dHgKwdIAT442UPLHBAof-5" value="2" style="ellipse;whiteSpace=wrap;html=1;aspect=fixed;fillColor=#dae8fc;strokeColor=#6c8ebf;fontSize=21;fontStyle=1" vertex="1" parent="1">
          <mxGeometry x="697" y="186" width="80" height="80" as="geometry" />
        </mxCell>
      </root>
    </mxGraphModel>
  </diagram>
  <diagram id="Cjg0xLUz2Vm5kWlsUyyU" name="堆排序">
    <mxGraphModel dx="1477" dy="771" grid="0" gridSize="10" guides="1" tooltips="1" connect="1" arrows="1" fold="1" page="1" pageScale="1" pageWidth="1654" pageHeight="2336" math="0" shadow="0">
      <root>
        <mxCell id="0" />
        <mxCell id="1" parent="0" />
        <mxCell id="diHu5BayQyOqN3jumPOF-2" value="&lt;font style=&quot;font-size: 18px;&quot;&gt;10&lt;/font&gt;" style="ellipse;whiteSpace=wrap;html=1;aspect=fixed;fillColor=#d5e8d4;strokeColor=#82b366;fontStyle=1" vertex="1" parent="1">
          <mxGeometry x="300" y="309" width="80" height="80" as="geometry" />
        </mxCell>
        <mxCell id="diHu5BayQyOqN3jumPOF-7" style="rounded=0;orthogonalLoop=1;jettySize=auto;html=1;fontStyle=1" edge="1" parent="1" source="diHu5BayQyOqN3jumPOF-3" target="diHu5BayQyOqN3jumPOF-6">
          <mxGeometry relative="1" as="geometry" />
        </mxCell>
        <mxCell id="diHu5BayQyOqN3jumPOF-8" style="rounded=0;orthogonalLoop=1;jettySize=auto;html=1;fontStyle=1" edge="1" parent="1" source="diHu5BayQyOqN3jumPOF-3" target="diHu5BayQyOqN3jumPOF-5">
          <mxGeometry relative="1" as="geometry" />
        </mxCell>
        <mxCell id="diHu5BayQyOqN3jumPOF-3" value="&lt;font style=&quot;font-size: 18px;&quot;&gt;50&lt;/font&gt;" style="ellipse;whiteSpace=wrap;html=1;aspect=fixed;fillColor=#d5e8d4;strokeColor=#82b366;fontStyle=1" vertex="1" parent="1">
          <mxGeometry x="337" y="32" width="80" height="80" as="geometry" />
        </mxCell>
        <mxCell id="diHu5BayQyOqN3jumPOF-4" value="&lt;font style=&quot;font-size: 18px;&quot;&gt;20&lt;/font&gt;" style="ellipse;whiteSpace=wrap;html=1;aspect=fixed;fillColor=#d5e8d4;strokeColor=#82b366;fontStyle=1" vertex="1" parent="1">
          <mxGeometry x="174" y="303" width="80" height="80" as="geometry" />
        </mxCell>
        <mxCell id="diHu5BayQyOqN3jumPOF-5" value="&lt;font style=&quot;font-size: 18px;&quot;&gt;40&lt;/font&gt;" style="ellipse;whiteSpace=wrap;html=1;aspect=fixed;fillColor=#d5e8d4;strokeColor=#82b366;fontStyle=1" vertex="1" parent="1">
          <mxGeometry x="445" y="158" width="80" height="80" as="geometry" />
        </mxCell>
        <mxCell id="diHu5BayQyOqN3jumPOF-9" style="rounded=0;orthogonalLoop=1;jettySize=auto;html=1;entryX=0.5;entryY=0;entryDx=0;entryDy=0;fontStyle=1" edge="1" parent="1" source="diHu5BayQyOqN3jumPOF-6" target="diHu5BayQyOqN3jumPOF-4">
          <mxGeometry relative="1" as="geometry" />
        </mxCell>
        <mxCell id="diHu5BayQyOqN3jumPOF-10" style="rounded=0;orthogonalLoop=1;jettySize=auto;html=1;fontStyle=1" edge="1" parent="1" source="diHu5BayQyOqN3jumPOF-6" target="diHu5BayQyOqN3jumPOF-2">
          <mxGeometry relative="1" as="geometry" />
        </mxCell>
        <mxCell id="diHu5BayQyOqN3jumPOF-6" value="&lt;font style=&quot;font-size: 18px;&quot;&gt;30&lt;/font&gt;" style="ellipse;whiteSpace=wrap;html=1;aspect=fixed;fillColor=#d5e8d4;strokeColor=#82b366;fontStyle=1" vertex="1" parent="1">
          <mxGeometry x="232" y="153" width="80" height="80" as="geometry" />
        </mxCell>
        <mxCell id="diHu5BayQyOqN3jumPOF-11" value="&lt;b&gt;&lt;font style=&quot;font-size: 18px;&quot;&gt;大顶堆 50是最大值&lt;/font&gt;&lt;/b&gt;" style="text;html=1;align=center;verticalAlign=middle;whiteSpace=wrap;rounded=0;" vertex="1" parent="1">
          <mxGeometry x="409" y="23" width="189" height="30" as="geometry" />
        </mxCell>
        <mxCell id="diHu5BayQyOqN3jumPOF-12" value="" style="endArrow=classic;html=1;rounded=0;" edge="1" parent="1">
          <mxGeometry width="50" height="50" relative="1" as="geometry">
            <mxPoint x="568" y="224" as="sourcePoint" />
            <mxPoint x="664" y="224" as="targetPoint" />
          </mxGeometry>
        </mxCell>
        <mxCell id="diHu5BayQyOqN3jumPOF-13" value="&lt;font style=&quot;font-size: 18px;&quot;&gt;50&lt;/font&gt;" style="ellipse;whiteSpace=wrap;html=1;aspect=fixed;fillColor=#dae8fc;strokeColor=#6c8ebf;fontStyle=1" vertex="1" parent="1">
          <mxGeometry x="758" y="317" width="80" height="80" as="geometry" />
        </mxCell>
        <mxCell id="diHu5BayQyOqN3jumPOF-14" style="rounded=0;orthogonalLoop=1;jettySize=auto;html=1;fontStyle=1" edge="1" parent="1" source="diHu5BayQyOqN3jumPOF-16" target="diHu5BayQyOqN3jumPOF-21">
          <mxGeometry relative="1" as="geometry" />
        </mxCell>
        <mxCell id="diHu5BayQyOqN3jumPOF-15" style="rounded=0;orthogonalLoop=1;jettySize=auto;html=1;fontStyle=1" edge="1" parent="1" source="diHu5BayQyOqN3jumPOF-16" target="diHu5BayQyOqN3jumPOF-18">
          <mxGeometry relative="1" as="geometry" />
        </mxCell>
        <mxCell id="diHu5BayQyOqN3jumPOF-16" value="&lt;font style=&quot;font-size: 18px;&quot;&gt;10&lt;/font&gt;" style="ellipse;whiteSpace=wrap;html=1;aspect=fixed;fillColor=#d5e8d4;strokeColor=#82b366;fontStyle=1" vertex="1" parent="1">
          <mxGeometry x="795" y="40" width="80" height="80" as="geometry" />
        </mxCell>
        <mxCell id="diHu5BayQyOqN3jumPOF-17" value="&lt;font style=&quot;font-size: 18px;&quot;&gt;20&lt;/font&gt;" style="ellipse;whiteSpace=wrap;html=1;aspect=fixed;fillColor=#d5e8d4;strokeColor=#82b366;fontStyle=1" vertex="1" parent="1">
          <mxGeometry x="632" y="311" width="80" height="80" as="geometry" />
        </mxCell>
        <mxCell id="diHu5BayQyOqN3jumPOF-18" value="&lt;font style=&quot;font-size: 18px;&quot;&gt;40&lt;/font&gt;" style="ellipse;whiteSpace=wrap;html=1;aspect=fixed;fillColor=#d5e8d4;strokeColor=#82b366;fontStyle=1" vertex="1" parent="1">
          <mxGeometry x="903" y="166" width="80" height="80" as="geometry" />
        </mxCell>
        <mxCell id="diHu5BayQyOqN3jumPOF-19" style="rounded=0;orthogonalLoop=1;jettySize=auto;html=1;entryX=0.5;entryY=0;entryDx=0;entryDy=0;fontStyle=1" edge="1" parent="1" source="diHu5BayQyOqN3jumPOF-21" target="diHu5BayQyOqN3jumPOF-17">
          <mxGeometry relative="1" as="geometry" />
        </mxCell>
        <mxCell id="diHu5BayQyOqN3jumPOF-21" value="&lt;font style=&quot;font-size: 18px;&quot;&gt;30&lt;/font&gt;" style="ellipse;whiteSpace=wrap;html=1;aspect=fixed;fillColor=#d5e8d4;strokeColor=#82b366;fontStyle=1" vertex="1" parent="1">
          <mxGeometry x="690" y="161" width="80" height="80" as="geometry" />
        </mxCell>
        <mxCell id="diHu5BayQyOqN3jumPOF-22" value="&lt;b&gt;&lt;font style=&quot;font-size: 18px;&quot;&gt;50和10(末尾元素互换)&lt;/font&gt;&lt;/b&gt;" style="text;html=1;align=center;verticalAlign=middle;whiteSpace=wrap;rounded=0;" vertex="1" parent="1">
          <mxGeometry x="558" y="172" width="107" height="30" as="geometry" />
        </mxCell>
        <mxCell id="diHu5BayQyOqN3jumPOF-23" value="&lt;font style=&quot;font-size: 18px;&quot;&gt;50&lt;/font&gt;" style="ellipse;whiteSpace=wrap;html=1;aspect=fixed;fillColor=#dae8fc;strokeColor=#6c8ebf;fontStyle=1" vertex="1" parent="1">
          <mxGeometry x="1209" y="317" width="80" height="80" as="geometry" />
        </mxCell>
        <mxCell id="diHu5BayQyOqN3jumPOF-24" style="rounded=0;orthogonalLoop=1;jettySize=auto;html=1;fontStyle=1" edge="1" parent="1" source="diHu5BayQyOqN3jumPOF-26" target="diHu5BayQyOqN3jumPOF-31">
          <mxGeometry relative="1" as="geometry" />
        </mxCell>
        <mxCell id="diHu5BayQyOqN3jumPOF-25" style="rounded=0;orthogonalLoop=1;jettySize=auto;html=1;fontStyle=1" edge="1" parent="1" source="diHu5BayQyOqN3jumPOF-26" target="diHu5BayQyOqN3jumPOF-28">
          <mxGeometry relative="1" as="geometry" />
        </mxCell>
        <mxCell id="diHu5BayQyOqN3jumPOF-26" value="&lt;font style=&quot;font-size: 18px;&quot;&gt;40&lt;/font&gt;" style="ellipse;whiteSpace=wrap;html=1;aspect=fixed;fillColor=#d5e8d4;strokeColor=#82b366;fontStyle=1" vertex="1" parent="1">
          <mxGeometry x="1246" y="40" width="80" height="80" as="geometry" />
        </mxCell>
        <mxCell id="diHu5BayQyOqN3jumPOF-27" value="&lt;font style=&quot;font-size: 18px;&quot;&gt;20&lt;/font&gt;" style="ellipse;whiteSpace=wrap;html=1;aspect=fixed;fillColor=#d5e8d4;strokeColor=#82b366;fontStyle=1" vertex="1" parent="1">
          <mxGeometry x="1083" y="311" width="80" height="80" as="geometry" />
        </mxCell>
        <mxCell id="diHu5BayQyOqN3jumPOF-28" value="&lt;font style=&quot;font-size: 18px;&quot;&gt;10&lt;/font&gt;" style="ellipse;whiteSpace=wrap;html=1;aspect=fixed;fillColor=#d5e8d4;strokeColor=#82b366;fontStyle=1" vertex="1" parent="1">
          <mxGeometry x="1354" y="166" width="80" height="80" as="geometry" />
        </mxCell>
        <mxCell id="diHu5BayQyOqN3jumPOF-29" style="rounded=0;orthogonalLoop=1;jettySize=auto;html=1;entryX=0.5;entryY=0;entryDx=0;entryDy=0;fontStyle=1" edge="1" parent="1" source="diHu5BayQyOqN3jumPOF-31" target="diHu5BayQyOqN3jumPOF-27">
          <mxGeometry relative="1" as="geometry" />
        </mxCell>
        <mxCell id="diHu5BayQyOqN3jumPOF-31" value="&lt;font style=&quot;font-size: 18px;&quot;&gt;30&lt;/font&gt;" style="ellipse;whiteSpace=wrap;html=1;aspect=fixed;fillColor=#d5e8d4;strokeColor=#82b366;fontStyle=1" vertex="1" parent="1">
          <mxGeometry x="1141" y="161" width="80" height="80" as="geometry" />
        </mxCell>
        <mxCell id="diHu5BayQyOqN3jumPOF-32" value="" style="endArrow=classic;html=1;rounded=0;" edge="1" parent="1">
          <mxGeometry width="50" height="50" relative="1" as="geometry">
            <mxPoint x="1002" y="205.29000000000002" as="sourcePoint" />
            <mxPoint x="1131" y="205" as="targetPoint" />
          </mxGeometry>
        </mxCell>
        <mxCell id="diHu5BayQyOqN3jumPOF-33" value="&lt;span style=&quot;font-size: 18px;&quot;&gt;&lt;b&gt;调整成大顶堆&lt;/b&gt;&lt;/span&gt;" style="text;html=1;align=center;verticalAlign=middle;whiteSpace=wrap;rounded=0;" vertex="1" parent="1">
          <mxGeometry x="1022" y="145" width="90" height="30" as="geometry" />
        </mxCell>
      </root>
    </mxGraphModel>
  </diagram>
</mxfile>
